<svg width="28" height="37" viewBox="0 0 28 37" fill="none" xmlns="http://www.w3.org/2000/svg">
<g id="Location 1" clip-path="url(#clip0_2624_962)">
<g id="&#235;&#160;&#136;&#236;&#157;&#180;&#236;&#150;&#180; 1">
<path id="Vector" d="M12.6178 35.459C13.2444 36.4268 14.7001 36.4268 15.3267 35.459C25.4803 20.8687 27.3599 19.3348 27.3599 13.9113C27.3599 6.534 21.3894 0.562744 13.9999 0.562744C6.61043 0.562744 0.639893 6.534 0.639893 13.9113C0.639893 19.3348 2.4458 20.8687 12.6178 35.459ZM13.9999 19.4626C10.8672 19.4626 8.43476 17.0339 8.43476 13.9113C8.43476 10.7887 10.8672 8.36007 13.9999 8.36007C17.1326 8.36007 19.565 10.8618 19.565 13.9113C19.565 16.9609 17.0589 19.4626 13.9999 19.4626Z" fill="#FF6F31"/>
</g>
</g>
<defs>
<clipPath id="clip0_2624_962">
<rect width="26.72" height="35.6267" fill="white" transform="translate(0.639893 0.562744)"/>
</clipPath>
</defs>
</svg>
