<svg width="334" height="309" viewBox="0 0 334 309" fill="none" xmlns="http://www.w3.org/2000/svg">
<g clip-path="url(#clip0_2729_8338)">
<rect width="334" height="309" rx="12" fill="#E9F6FF"/>
<path d="M179.957 35.4295L241.457 101.429C244.657 104.864 245.79 111.86 245.957 114.929C247.457 141.096 250.157 172.1 248.957 184.5C247.757 196.9 258.123 201.667 263.457 202.5L383.957 207.5V153C362.623 152.333 317.457 150.7 307.457 149.5C297.457 148.3 293.957 140.667 293.457 137L281.457 107.929C281.057 95.9294 274.957 87.5961 271.957 84.9294L199.457 19.4295C196.957 17.5961 190.157 15.0295 182.957 19.4295C175.757 23.8295 177.957 31.9295 179.957 35.4295Z" fill="#9BD5FF"/>
<path d="M259 215C253.8 202.2 243.833 199 239.5 199L160 201L57.9996 206.5C39.9994 206.5 37.9995 229.95 68.4996 233C103.5 236.5 177.8 236.3 191 237.5C204.2 238.7 208.166 248.667 208.5 253.5L226.5 308.5H307.5C293.5 282.667 264.2 227.8 259 215Z" fill="#9BD5FF"/>
<path d="M99 199.5L-7 219V181.5C6.16667 180.667 35.8 178 49 174C62.2 170 65.3814 162 66 159C69.3333 142.833 74.9245 128.377 78 113C81 98 86.3333 86.8333 89.5 83.5L152.5 31.5C157 27 167.6 19.2 174 24C180.4 28.8 177 39.1936 171 45C155.5 60 121 90 116 94.5C110.281 99.6472 111.833 112.833 112 122C112.333 142.167 108.8 169 108 185C107.411 196.772 103 198.5 99 199.5Z" fill="#9BD5FF"/>
</g>
<defs>
<clipPath id="clip0_2729_8338">
<rect width="334" height="309" fill="white"/>
</clipPath>
</defs>
</svg>
