<svg width="16" height="16" viewBox="0 0 16 16" fill="none" xmlns="http://www.w3.org/2000/svg">
<g id="ic:baseline-edit">
<path id="Vector" d="M3.33337 9.38915V11.3333H5.27755L11.0116 5.5993L9.06741 3.65512L3.33337 9.38915ZM12.5151 4.0958C12.5632 4.04783 12.6013 3.99086 12.6273 3.92814C12.6533 3.86543 12.6667 3.79819 12.6667 3.73029C12.6667 3.66239 12.6533 3.59516 12.6273 3.53244C12.6013 3.46972 12.5632 3.41275 12.5151 3.36479L11.3019 2.15162C11.254 2.10356 11.197 2.06542 11.1343 2.03941C11.0715 2.01339 11.0043 2 10.9364 2C10.8685 2 10.8013 2.01339 10.7386 2.03941C10.6758 2.06542 10.6189 2.10356 10.5709 2.15162L9.62215 3.10038L11.5663 5.04456L12.5151 4.0958Z" fill="#FF6F31"/>
<path id="Vector 14" d="M2.66663 13.3334H13.3333" stroke="#FF6F31" stroke-width="1.33333" stroke-linecap="round" stroke-linejoin="round"/>
</g>
</svg>
