<svg width="25" height="24" viewBox="0 0 25 24" fill="none" xmlns="http://www.w3.org/2000/svg">
<path d="M16.4033 9.11523C16.5265 9.69716 16.9562 10.166 17.5254 10.3389L21.3887 11.5117H21.4756L21.4316 11.5244L21.4756 11.5381H21.3887L17.5254 12.7109C16.9563 12.8838 16.5265 13.3527 16.4033 13.9346L15.1152 20.0156L13.9072 13.9541C13.7889 13.3613 13.3518 12.8827 12.7725 12.71L8.84473 11.5381H8.75586L8.7998 11.5244L8.75586 11.5117H8.84473L12.7725 10.3398C13.3519 10.1671 13.789 9.6877 13.9072 9.09473L15.1152 3.03418L16.4033 9.11523Z" fill="#FF6F31"/>
<path d="M9.37964 16.4648C9.42876 16.6964 9.59949 16.8833 9.82593 16.9521L11.7214 17.5273H11.7634L11.7419 17.5332L11.7634 17.54H11.7214L9.82593 18.1152C9.59949 18.1841 9.42876 18.371 9.37964 18.6025L8.75562 21.5498L8.16968 18.6113C8.12259 18.3752 7.94825 18.184 7.71753 18.1152L5.78979 17.54H5.74683L5.76733 17.5332L5.74683 17.5273H5.78979L7.71753 16.9521C7.94825 16.8833 8.12259 16.6922 8.16968 16.4561L8.75562 13.5176L9.37964 16.4648Z" fill="#FFC5AD"/>
<path d="M6.63135 5.34717C6.68041 5.57892 6.85193 5.76568 7.07861 5.83447L8.96924 6.40869H9.01123L8.98975 6.41455L9.01123 6.42139H8.96924L7.07861 6.99561C6.85193 7.0644 6.68041 7.25116 6.63135 7.48291L6.00928 10.4224L5.42432 7.49072C5.37724 7.25468 5.20377 7.06348 4.97314 6.99463L3.05029 6.42139H3.00732L3.02783 6.41455L3.00732 6.40869H3.05029L4.97314 5.83545C5.20377 5.7666 5.37724 5.5754 5.42432 5.33936L6.00928 2.40771L6.63135 5.34717Z" fill="#FF6F31"/>
</svg>
