<svg width="25" height="24" viewBox="0 0 25 24" fill="none" xmlns="http://www.w3.org/2000/svg">
<path d="M6.5 12.5C6.5 16.1327 8.86755 18.5 12.501 18.5C16.1344 18.5 18.5 16.1327 18.5 12.5C18.5 8.86734 16.1344 6.5 12.501 6.5C11.3164 6.5 10.2669 6.7527 9.38965 7.21777V7.16699L8.28906 5.69824C9.5125 4.93919 10.9553 4.5 12.501 4.5C16.9197 4.5 20.502 8.08172 20.502 12.5C20.502 16.9183 16.9197 20.5 12.501 20.5C8.22045 20.5 4.72525 17.1389 4.51074 12.9121L4.5 12.5H6.5Z" fill="#FFC5AD"/>
<path d="M11.6322 7.71689C12.1791 8.31305 11.8286 9.27813 11.0265 9.38428L6.56755 9.9744C5.87935 10.0655 5.31 9.44483 5.45996 8.76703L6.43153 4.37568C6.60629 3.58577 7.59787 3.31953 8.14479 3.91566L11.6322 7.71689Z" fill="#FF6F31"/>
</svg>
