<svg width="25" height="24" viewBox="0 0 25 24" fill="none" xmlns="http://www.w3.org/2000/svg">
<path d="M17.8922 20.0468C18.5337 20.0468 19.0049 19.481 18.5341 19.0452C18.1911 18.7276 17.6883 18.4391 17.0545 18.196C16.4207 17.953 15.6682 17.7602 14.8401 17.6286C14.012 17.4971 13.1244 17.4294 12.228 17.4294C11.3317 17.4294 10.4441 17.4971 9.61595 17.6286C8.78782 17.7602 8.03536 17.953 7.40154 18.196C6.76772 18.4391 6.26494 18.7276 5.92192 19.0452C5.45119 19.481 5.92236 20.0468 6.56384 20.0468L12.228 20.0468H17.8922Z" fill="#FF6F31"/>
<path d="M6.99967 3.75C8.56753 3.74973 10.0812 4.32351 11.255 5.36298C12.756 6.8951 12.808 9.25851 12.808 9.25851C12.808 9.25851 12.2633 9.74449 11.6507 10.8181C10.9969 11.964 10.9969 12.9167 10.9969 12.9167C7.58765 13.0754 6.41576 12.2406 5.21241 11.0373C4.00905 9.83391 3.33301 8.20181 3.33301 6.5V4.66667C3.33301 4.42355 3.42958 4.19039 3.60149 4.01849C3.7734 3.84658 4.00656 3.75 4.24967 3.75H6.99967Z" fill="#FFC5AD"/>
<path d="M12.198 10.9378C12.7285 10.0056 13.3705 9.39193 13.3705 9.39193C13.9682 8.7664 14.6866 8.26876 15.4824 7.9292C16.2781 7.58963 17.1345 7.41521 17.9997 7.41651H20.7497C20.9928 7.41651 21.226 7.51309 21.3979 7.685C21.5698 7.85691 21.6663 8.09006 21.6663 8.33318V9.24985C21.6663 10.9517 20.9903 12.5838 19.7869 13.7871C18.5836 14.9905 16.9515 15.6665 15.2497 15.6665H13.4163V18.3332C13.4163 18.5763 13.3198 18.8095 13.1479 18.9814C12.9759 19.1533 12.7428 19.2498 12.4997 19.2498C12.2566 19.2498 12.0234 19.1533 11.8515 18.9814C11.6796 18.8095 11.583 18.5763 11.583 18.3332V12.9165C11.583 12.9165 11.6676 11.8701 12.198 10.9378Z" fill="#FF6F31"/>
<path d="M16.3271 11.2109C15.2599 11.5516 14.0625 12.368 13.4053 13.4116" stroke="#FFC5AD" stroke-linecap="round"/>
<path d="M7.79565 7.88525C8.86286 8.22592 10.0603 9.04232 10.7175 10.0859" stroke="#FF6F31" stroke-linecap="round"/>
</svg>
