<svg width="25" height="24" viewBox="0 0 25 24" fill="none" xmlns="http://www.w3.org/2000/svg">
<path d="M8.53467 10.6462C8.53467 10.3383 8.72619 10.0628 9.00425 9.93168C9.61159 9.64514 12.7511 9.50147 13.4682 8.29126C14.2103 6.83767 14.183 5.47559 14.2014 5.06051C14.204 5.00232 14.2025 4.94413 14.2103 4.88667C14.3101 4.16738 15.6982 5.00747 16.2304 5.89582C16.5195 6.37756 16.5564 7.01067 16.5262 7.50531C16.4934 8.03419 16.3383 8.54502 16.1862 9.05255L15.8621 10.1343H19.8608C19.9746 10.1342 20.0869 10.1606 20.1888 10.2113C20.2907 10.2619 20.3795 10.3355 20.4481 10.4263C20.5168 10.517 20.5636 10.6224 20.5847 10.7343C20.6058 10.8461 20.6007 10.9613 20.5698 11.0708L18.592 18.0745C18.5483 18.229 18.4554 18.3649 18.3274 18.4617C18.1993 18.5585 18.0431 18.6109 17.8826 18.6107H9.27127C9.07591 18.6107 8.88856 18.5331 8.75041 18.395C8.61227 18.2569 8.53467 18.0695 8.53467 17.8741V10.6462Z" fill="#FFC5AD" stroke="#FFC5AD" stroke-width="2" stroke-linecap="round" stroke-linejoin="round"/>
<path d="M5.54215 9.2895C5.50231 9.41665 5.48727 9.55141 5.49798 9.68521L6.23571 18.8913C6.25505 19.1329 6.35719 19.3579 6.52197 19.5218C6.68676 19.6857 6.90219 19.7766 7.12573 19.7765H8.093C8.32988 19.7765 8.55706 19.6744 8.72455 19.4927C8.89205 19.311 8.98615 19.0645 8.98615 18.8075V9.60138C8.98615 9.34437 8.89205 9.09789 8.72455 8.91616C8.55706 8.73442 8.32988 8.63232 8.093 8.63232H6.38755C6.26377 8.63236 6.14134 8.66031 6.02804 8.7144C5.91474 8.7685 5.81305 8.84755 5.7294 8.94655C5.64576 9.04555 5.58199 9.16234 5.54215 9.2895Z" fill="#FF6F31" stroke="#FF6F31" stroke-width="2" stroke-linecap="round" stroke-linejoin="round"/>
</svg>
