<svg width="25" height="24" viewBox="0 0 25 24" fill="none" xmlns="http://www.w3.org/2000/svg">
<path d="M3.75 11.3332C3.75 10.7809 4.19772 10.3332 4.75 10.3332H20.25C20.8023 10.3332 21.25 10.7809 21.25 11.3332V19.3332C21.25 19.8855 20.8023 20.3332 20.25 20.3332H4.75C4.19772 20.3332 3.75 19.8855 3.75 19.3332V11.3332Z" fill="#FF6F31"/>
<path d="M17.1055 6.26367L18.8535 5.66797L20.4482 10.334H18.6875H10.3311H4.1748V10.3252L4.71484 10.3301L14.4561 2.5498L17.1055 6.26367Z" fill="#FFC5AD"/>
<path d="M11.0308 18.3555C10.7065 18.3555 10.4253 18.1311 10.3533 17.8149L9.91227 15.8786H9.07373V15.1214H9.73694L9.31406 13.2647C9.24173 12.9471 9.4831 12.6445 9.80883 12.6445C10.0507 12.6445 10.259 12.8153 10.3064 13.0524L10.7203 15.1214H11.4597L11.9022 13.1246C11.9644 12.8441 12.213 12.6445 12.5003 12.6445C12.7875 12.6445 13.0362 12.8441 13.0984 13.1246L13.5408 15.1214H14.2841L14.6947 13.0529C14.7418 12.8155 14.9501 12.6445 15.1921 12.6445C15.5177 12.6445 15.7589 12.9469 15.6866 13.2643L15.2636 15.1214H15.9269V15.8786H15.0883L14.6473 17.8149C14.5753 18.1311 14.2941 18.3555 13.9698 18.3555C13.6436 18.3555 13.3613 18.1285 13.2912 17.8099L12.8662 15.8786H12.1344L11.7094 17.8099C11.6393 18.1285 11.357 18.3555 11.0308 18.3555ZM10.869 15.8786L11.0481 16.77H11.0938L11.292 15.8786H10.869ZM12.3021 15.1214H12.6985L12.5194 14.301H12.4812L12.3021 15.1214ZM13.7085 15.8786L13.9067 16.7779H13.9525L14.1316 15.8786H13.7085Z" fill="#FFC5AD"/>
</svg>
