<svg width="25" height="24" viewBox="0 0 25 24" fill="none" xmlns="http://www.w3.org/2000/svg">
<path d="M12.5322 11.9336L21.5 16.5V20C21.5 20.5522 21.0523 21 20.5 21L9 20.9999C8.44772 20.9999 8 20.5522 8 19.9999V16.9999L12.5322 11.9336Z" fill="#FFC5AD"/>
<path d="M12.2614 12.7162C11.6188 12.0901 12.0621 11 12.9593 11H16.9596C17.2211 11 17.4721 11.1024 17.659 11.2852L21.7473 15.2852C22.3879 15.9119 21.9442 17 21.048 17H17.0645C16.8038 17 16.5534 16.8982 16.3667 16.7162L12.2614 12.7162Z" fill="#FF6F31"/>
<path d="M12.8516 11.8232L8.35156 16.3232" stroke="#FF6F31" stroke-width="1.6" stroke-linecap="round"/>
<rect x="11.5" y="18" width="2" height="2" fill="#FF6F31"/>
<path d="M16 9C16 8.44772 16.4477 8 17 8H19C19.5523 8 20 8.44772 20 9V14H16V9Z" fill="#FF6F31"/>
<path d="M11.3141 5.60183C11.1601 4.82162 10.74 4.11906 10.1256 3.61415C9.51122 3.10924 8.74057 2.83332 7.94531 2.8335C6.62073 2.8335 5.47031 3.58516 4.8974 4.68516C4.22375 4.75796 3.60077 5.07713 3.14816 5.58135C2.69555 6.08557 2.44523 6.73926 2.44531 7.41683C2.44531 8.93391 3.67823 10.1668 5.19531 10.1668H11.1536C12.4186 10.1668 13.4453 9.14016 13.4453 7.87516C13.4453 6.66516 12.5057 5.68433 11.3141 5.60183Z" fill="#FFC5AD"/>
<path d="M16.1586 3.07556C16.6586 3.22906 17.0736 3.61931 17.2818 4.28456C17.7943 4.32881 18.2811 4.60581 18.5476 4.98531C18.6951 5.19581 18.7806 5.44631 18.7526 5.71031C18.7243 5.97681 18.5833 6.23206 18.3243 6.45406C18.0453 6.69331 17.6553 6.75006 17.3508 6.75006H15.1393C14.9141 6.75012 14.6917 6.70063 14.4878 6.60511C14.2838 6.50958 14.1034 6.37036 13.9593 6.19731C13.4593 5.63156 13.3533 5.03081 13.5161 4.49831C13.6761 3.97581 14.0861 3.54531 14.5701 3.28331C15.0538 3.02181 15.6368 2.91531 16.1586 3.07556Z" fill="#FFC5AD"/>
</svg>
