<svg width="24" height="24" viewBox="0 0 24 24" fill="none" xmlns="http://www.w3.org/2000/svg">
<g id="Icon">
<path id="Vector 32" d="M8.63143 3.73979V3.73979C9.29484 4.22571 9.49461 5.12849 9.09814 5.84894L7.83371 8.14658C7.42462 8.88995 7.64858 9.82254 8.35062 10.2991V10.2991" stroke="#FF6F31" stroke-width="1.51816" stroke-linecap="round"/>
<path id="Vector 33" d="M12.1773 3.73979V3.73979C12.8407 4.22571 13.0405 5.12849 12.644 5.84894L11.3796 8.14658C10.9705 8.88995 11.1945 9.82254 11.8965 10.2991V10.2991" stroke="#FF6F31" stroke-width="1.51816" stroke-linecap="round"/>
<path id="Vector 34" d="M15.7222 3.73979V3.73979C16.3857 4.22571 16.5854 5.12849 16.189 5.84894L14.9245 8.14658C14.5154 8.88995 14.7394 9.82254 15.4414 10.2991V10.2991" stroke="#FF6F31" stroke-width="1.51816" stroke-linecap="round"/>
<path id="Rectangle 134" d="M4 14C4 13.4477 4.44772 13 5 13H19C19.5523 13 20 13.4477 20 14V15.5353C20 17 17.8667 21 12 21C6.13333 21 4 17 4 15.5353V14Z" fill="#FFC5AD"/>
<path id="Rectangle 235" d="M8 20.5C8 21.0523 8.44772 21.5 9 21.5H15C15.5523 21.5 16 21.0523 16 20.5V20C16 19.4477 15.5523 19 15 19H9C8.44772 19 8 19.4477 8 20L8 20.5Z" fill="#FFC5AD"/>
</g>
</svg>
