<svg width="25" height="24" viewBox="0 0 25 24" fill="none" xmlns="http://www.w3.org/2000/svg">
<path d="M9.13143 3.73979V3.73979C9.79484 4.22571 9.99461 5.12849 9.59814 5.84894L8.33371 8.14658C7.92462 8.88995 8.14858 9.82254 8.85062 10.2991V10.2991" stroke="#FF6F31" stroke-width="1.51816" stroke-linecap="round"/>
<path d="M12.6773 3.73979V3.73979C13.3407 4.22571 13.5405 5.12849 13.144 5.84894L11.8796 8.14658C11.4705 8.88995 11.6945 9.82254 12.3965 10.2991V10.2991" stroke="#FF6F31" stroke-width="1.51816" stroke-linecap="round"/>
<path d="M16.2222 3.73979V3.73979C16.8857 4.22571 17.0854 5.12849 16.689 5.84894L15.4245 8.14658C15.0154 8.88995 15.2394 9.82254 15.9414 10.2991V10.2991" stroke="#FF6F31" stroke-width="1.51816" stroke-linecap="round"/>
<path d="M4.5 14C4.5 13.4477 4.94772 13 5.5 13H19.5C20.0523 13 20.5 13.4477 20.5 14V15.5353C20.5 17 18.3667 21 12.5 21C6.63333 21 4.5 17 4.5 15.5353V14Z" fill="#FFC5AD"/>
<path d="M8.5 20.5C8.5 21.0523 8.94772 21.5 9.5 21.5H15.5C16.0523 21.5 16.5 21.0523 16.5 20.5V20C16.5 19.4477 16.0523 19 15.5 19H9.5C8.94772 19 8.5 19.4477 8.5 20L8.5 20.5Z" fill="#FFC5AD"/>
</svg>
