<svg width="25" height="24" viewBox="0 0 25 24" fill="none" xmlns="http://www.w3.org/2000/svg">
<circle cx="16.2832" cy="7.70801" r="3" fill="#FFC5AD"/>
<circle cx="7.80566" cy="7.70801" r="3" fill="#FF6F31"/>
<path d="M12.2822 15.8818C12.2822 13.6727 14.0731 11.8818 16.2822 11.8818C18.4914 11.8818 20.2822 13.6727 20.2822 15.8818V18.9277C20.2822 19.48 19.8345 19.9277 19.2822 19.9277H13.2822C12.7299 19.9277 12.2822 19.48 12.2822 18.9277V15.8818Z" fill="#FFC5AD"/>
<path d="M3.90723 15.8818C3.90723 13.6727 5.69809 11.8818 7.90723 11.8818C10.1164 11.8818 11.9072 13.6727 11.9072 15.8818V18.9277C11.9072 19.48 11.4595 19.9277 10.9072 19.9277H4.90723C4.35494 19.9277 3.90723 19.48 3.90723 18.9277V15.8818Z" fill="#FF6F31"/>
<path d="M10.0166 14.5405C10.0166 14.5405 10.8367 17.1387 14.0103 17.1387C17.1839 17.1387 18.0039 14.5405 18.0039 14.5405" stroke="#FF6F31" stroke-width="3" stroke-linecap="round"/>
<path d="M19.3252 11.5269C19.8847 11.7389 20.4964 12.1933 20.8103 12.7395" stroke="#FF6F31" stroke-linecap="round"/>
</svg>
