<svg width="24" height="24" viewBox="0 0 24 24" fill="none" xmlns="http://www.w3.org/2000/svg">
<g id="Icon_type_pre">
<path id="Union" fill-rule="evenodd" clip-rule="evenodd" d="M15.5468 8.24535C15.8028 7.09306 14.926 6 13.7456 6H10.3458C9.16545 6 8.28862 7.09306 8.54469 8.24535C8.65197 8.72812 8.94857 9.14761 9.36794 9.40972L10.8926 10.3627C11.2105 10.5613 11.5778 10.6667 11.9526 10.6667H12.1388C12.5136 10.6667 12.8809 10.5613 13.1988 10.3627L14.7235 9.40972C15.1429 9.14761 15.4395 8.72812 15.5468 8.24535Z" fill="#EB7BD2"/>
<path id="Union_2" fill-rule="evenodd" clip-rule="evenodd" d="M6.56251 6.19299C6.34338 5.34936 6.20209 4.46141 6.14208 3.55678C6.10553 3.00571 6.55675 2.5575 7.10903 2.5575H12.0664H17.0238C17.576 2.5575 18.0273 3.00571 17.9907 3.55678C17.9307 4.46141 17.7894 5.34936 17.5703 6.19299C17.2709 7.34558 16.8321 8.39285 16.2789 9.27501C15.7257 10.1572 15.069 10.8569 14.3462 11.3344C14.3384 11.3395 14.3307 11.3446 14.3229 11.3496C14.0331 11.5388 14.0305 12.4758 14.32 12.6655C15.0483 13.1429 15.71 13.8427 16.2674 14.7249C16.8248 15.607 17.267 16.6543 17.5686 17.8069C17.7894 18.6505 17.9318 19.5385 17.9923 20.4431C18.0291 20.9942 17.5778 21.4424 17.0256 21.4424H12.0228H7.02007C6.46779 21.4424 6.01655 20.9942 6.05338 20.4431C6.11384 19.5385 6.25621 18.6505 6.47701 17.8069C6.77867 16.6543 7.22083 15.607 7.77824 14.7249C8.33564 13.8427 8.99738 13.1429 9.72567 12.6655C9.74263 12.6544 9.75962 12.6434 9.77664 12.6325C10.0656 12.448 10.0727 11.5233 9.78661 11.3344C9.06383 10.8569 8.40709 10.1572 7.8539 9.27501C7.30071 8.39285 6.86189 7.34558 6.56251 6.19299Z" fill="#FFCCF4"/>
<path id="Ellipse 27" d="M10.2286 5.88615C9.27398 5.88615 8.47029 6.67974 8.76996 7.58615C8.94815 8.12512 9.20932 8.61484 9.53857 9.02735C9.86782 9.43986 10.2587 9.76707 10.6889 9.99032C11.1191 10.2136 11.5801 10.3285 12.0457 10.3285C12.5114 10.3285 12.9724 10.2136 13.4026 9.99032C13.8328 9.76707 14.2237 9.43986 14.5529 9.02735C14.8822 8.61484 15.1433 8.12512 15.3215 7.58615C15.6212 6.67974 14.8175 5.88615 13.8628 5.88615L12.0457 5.88615L10.2286 5.88615Z" fill="#EB7BD2"/>
<path id="Vector 20" d="M10.7525 16.9133C9.81389 17.6627 8.59167 18.4327 7.66732 18.9365C7.46822 19.045 7.56164 19.4623 7.78839 19.4623H16.3336C16.5594 19.4623 16.6457 19.0641 16.4468 18.9573C15.5086 18.4533 14.2993 17.6838 13.3724 16.9291C12.7464 16.4194 11.3835 16.4097 10.7525 16.9133Z" fill="#EB7BD2"/>
<rect id="Rectangle 189" x="5" y="2" width="14" height="2" rx="1" fill="#982C80"/>
<rect id="Rectangle 190" x="5" y="20" width="14" height="2" rx="1" fill="#982C80"/>
</g>
</svg>
