<svg width="24" height="24" viewBox="0 0 24 24" fill="none" xmlns="http://www.w3.org/2000/svg">
<g id="Icon_type_region">
<g id="Group 7">
<path id="Rectangle 176" d="M7.53221 3.93359L16.5 8.5V12C16.5 12.5522 16.0523 13 15.5 13L4 12.9999C3.44772 12.9999 3 12.5522 3 11.9999V8.99995L7.53221 3.93359Z" fill="#9BD5FF"/>
<g id="Group 5">
<path id="Rectangle 179" d="M7.26139 4.71623C6.61881 4.09012 7.06208 3 7.95926 3H11.9596C12.2211 3 12.4721 3.10238 12.659 3.28521L16.7473 7.28521C17.3879 7.91195 16.9442 9 16.048 9H12.0645C11.8038 9 11.5534 8.89818 11.3667 8.71623L7.26139 4.71623Z" fill="#005C9E"/>
<path id="Vector 17" d="M7.85156 3.82349L3.35156 8.32349" stroke="#005C9E" stroke-width="1.6" stroke-linecap="round"/>
</g>
<rect id="Rectangle 180" x="6.5" y="10" width="2" height="2" fill="#005C9E"/>
</g>
<g id="Group 6">
<path id="Rectangle 176_2" d="M12.0322 11.9336L21 16.5V20C21 20.5522 20.5523 21 20 21L8.5 20.9999C7.94772 20.9999 7.5 20.5522 7.5 19.9999V16.9999L12.0322 11.9336Z" fill="#9BD5FF"/>
<g id="Group 5_2">
<path id="Rectangle 179_2" d="M11.7614 12.7162C11.1188 12.0901 11.5621 11 12.4593 11H16.4596C16.7211 11 16.9721 11.1024 17.159 11.2852L21.2473 15.2852C21.8879 15.9119 21.4442 17 20.548 17H16.5645C16.3038 17 16.0534 16.8982 15.8667 16.7162L11.7614 12.7162Z" fill="#005C9E"/>
<path id="Vector 17_2" d="M12.3516 11.8235L7.85156 16.3235" stroke="#005C9E" stroke-width="1.6" stroke-linecap="round"/>
</g>
<rect id="Rectangle 180_2" x="11" y="18" width="2" height="2" fill="#005C9E"/>
</g>
</g>
</svg>
