<svg width="24" height="24" viewBox="0 0 24 24" fill="none" xmlns="http://www.w3.org/2000/svg">
<g id="Icon_type_work">
<rect id="Rectangle 152" x="3.45001" y="9.25" width="17.1" height="10.8" rx="1.8" fill="#9BD5FF"/>
<path id="Vector" d="M10.2 2.95001H13.8C14.2774 2.95001 14.7352 3.13965 15.0728 3.47722C15.4104 3.81479 15.6 4.27262 15.6 4.75001V6.55001H19.2C19.6774 6.55001 20.1352 6.73965 20.4728 7.07722C20.8104 7.41479 21 7.87262 21 8.35001V10.4407C21 10.8087 20.7759 11.1396 20.4343 11.2763L14.3398 13.7141C12.8378 14.3149 11.1622 14.3149 9.66024 13.7141L3.56575 11.2763C3.22406 11.1396 3 10.8087 3 10.4407V8.35001C3 7.35101 3.801 6.55001 4.8 6.55001H8.4V4.75001C8.4 3.75101 9.201 2.95001 10.2 2.95001ZM13.8 6.55001V4.75001H10.2V6.55001H13.8Z" fill="#005C9E"/>
</g>
</svg>
