<svg width="24" height="24" viewBox="0 0 24 24" fill="none" xmlns="http://www.w3.org/2000/svg">
<g id="Icon_type_service">
<path id="Vector" fill-rule="evenodd" clip-rule="evenodd" d="M6.12642 5.17725C7.7128 3.5193 10.3147 3.62665 11.7711 5.41013C11.8894 5.55491 12.1106 5.55492 12.2289 5.41013C13.6853 3.62665 16.2872 3.51933 17.8736 5.17725C19.3755 6.7469 19.3755 9.29179 17.8736 10.8614L12.7225 16.2449C12.3288 16.6564 11.6713 16.6564 11.2775 16.2449L6.12642 10.8614C4.62453 9.29179 4.62453 6.7469 6.12642 5.17725Z" fill="#005C9E"/>
<path id="Vector_2" d="M10.4575 14.5945C10.4575 14.5945 9.3185 14.382 8.8525 14.5945C8.5055 14.7525 6.1625 15.2345 5.5 15.4705V19.9005C5.8835 19.8785 7.6465 19.838 7.9725 19.851C8.944 19.8905 9.6695 20.121 10.403 20.354C11.0875 20.5715 11.779 20.7915 12.683 20.86C12.911 20.877 13.132 20.8995 13.3465 20.921C14.1215 20.999 14.8075 21.068 15.3755 20.86C16.1005 20.5945 20.2415 18.577 20.759 18.046C21.2765 17.515 21.018 16.081 19.413 16.3465C18.6215 16.4775 17.703 16.8545 16.871 17.196C16.016 17.5465 15.2515 17.8605 14.806 17.8335C13.926 17.7805 11.596 17.3555 11.596 17.3555L14.271 17.388C14.271 17.388 14.649 17.408 15.168 17.037C15.688 16.666 16.152 15.6035 15.3755 15.6035C14.599 15.6035 13.7705 15.3375 13.7705 15.3375L10.4575 14.5945Z" fill="#9BD5FF"/>
<rect id="Rectangle 143" x="3" y="14.5" width="2.5" height="6.5" rx="1" fill="#005C9E"/>
</g>
</svg>
