<svg width="76" height="76" viewBox="0 0 76 76" fill="none" xmlns="http://www.w3.org/2000/svg">
<g clip-path="url(#clip0_2688_2464)">
<rect width="76" height="76" rx="38" fill="#BFE5FF"/>
<circle cx="37.0341" cy="81.5766" r="29.9071" fill="#35ABFF"/>
<path d="M38.1799 15.5269C45.1896 15.527 51.4005 18.9432 55.2415 24.2007C56.3212 23.9073 57.4575 23.7505 58.6301 23.7505C65.7504 23.7506 71.5225 29.5229 71.5227 36.6431C71.5227 43.7635 65.7505 49.5365 58.6301 49.5366C57.4577 49.5366 56.322 49.3787 55.2424 49.0854C51.4016 54.3441 45.1906 57.7621 38.1799 57.7622C31.1689 57.7622 24.9563 54.3445 21.1155 49.0854C20.0362 49.3785 18.9008 49.5366 17.7288 49.5366C10.6084 49.5365 4.83618 43.7635 4.83618 36.6431C4.83643 29.5229 10.6085 23.7506 17.7288 23.7505C18.9011 23.7505 20.037 23.9075 21.1165 24.2007C24.9574 18.9428 31.1699 15.5269 38.1799 15.5269Z" fill="white"/>
<path d="M38.1799 15.5269C45.1896 15.527 51.4005 18.9432 55.2415 24.2007C56.3212 23.9073 57.4575 23.7505 58.6301 23.7505C65.7504 23.7506 71.5225 29.5229 71.5227 36.6431C71.5227 43.7635 65.7505 49.5365 58.6301 49.5366C57.4577 49.5366 56.322 49.3787 55.2424 49.0854C51.4016 54.3441 45.1906 57.7621 38.1799 57.7622C31.1689 57.7622 24.9563 54.3445 21.1155 49.0854C20.0362 49.3785 18.9008 49.5366 17.7288 49.5366C10.6084 49.5365 4.83618 43.7635 4.83618 36.6431C4.83643 29.5229 10.6085 23.7506 17.7288 23.7505C18.9011 23.7505 20.037 23.9075 21.1165 24.2007C24.9574 18.9428 31.1699 15.5269 38.1799 15.5269Z" fill="url(#paint0_linear_2688_2464)" fill-opacity="0.2"/>
<rect x="26.7256" y="29.0078" width="3.5634" height="3.5634" rx="1.52717" fill="#35ABFF"/>
<rect x="36.1432" y="29.0078" width="3.5634" height="3.5634" rx="1.52717" fill="#35ABFF"/>
<path d="M23.9257 36.8979C23.9257 36.8979 26.0359 40.7159 33.0887 40.7159C40.1415 40.7159 42.2517 36.8979 42.2517 36.8979" stroke="#35ABFF" stroke-width="2.54529" stroke-linecap="round"/>
</g>
<defs>
<linearGradient id="paint0_linear_2688_2464" x1="38.1794" y1="42.313" x2="38.1794" y2="57.7622" gradientUnits="userSpaceOnUse">
<stop stop-color="#35ABFF" stop-opacity="0"/>
<stop offset="1" stop-color="#35ABFF"/>
</linearGradient>
<clipPath id="clip0_2688_2464">
<rect width="76" height="76" rx="38" fill="white"/>
</clipPath>
</defs>
</svg>
