<svg width="16" height="16" viewBox="0 0 16 16" fill="none" xmlns="http://www.w3.org/2000/svg">
<path d="M9.30726 2C8.67409 3.23328 8.8934 4.84009 9.88636 5.81348C10.3129 6.2334 10.8197 6.52005 11.2662 6.91992C11.4395 7.09326 11.6266 7.26679 11.7799 7.4668C11.7832 7.47151 12.1531 8.00128 12.2926 8.30664L12.3795 8.48047C13.0059 10.0004 12.5795 11.7732 11.36 12.8799C10.2669 13.8665 8.74045 14.1272 7.3141 13.9473C5.97434 13.7806 4.72732 12.9532 4.00745 11.7998C3.80762 11.4466 3.62807 11.0463 3.5348 10.6465C3.42157 10.3133 3.38142 9.97971 3.34144 9.64648C3.25492 8.19989 3.86122 6.66638 4.97425 5.75977C4.46768 6.85313 4.58824 8.22047 5.34144 9.17383C5.36526 9.21687 5.3965 9.25551 5.43421 9.28711C5.56085 9.39374 5.72136 9.43385 5.87464 9.36719C6.00783 9.31379 6.10706 9.17978 6.10706 9.0332C6.107 8.9467 6.08096 8.88006 6.05433 8.81348C5.24115 6.71342 5.92076 4.26659 7.6471 2.87988C8.12035 2.49987 8.67404 2.15334 9.30726 2ZM9.21156 8.31934C8.10268 9.27678 7.1833 10.7612 7.18324 11.6816C7.18324 12.6021 7.92975 13.3486 8.85023 13.3486C9.7705 13.3485 10.4849 12.7035 10.485 11.7832C10.485 10.2218 9.21156 10.5871 9.21156 8.31934Z" fill="#FF6F31"/>
</svg>
