<svg width="24" height="24" viewBox="0 0 24 24" fill="none" xmlns="http://www.w3.org/2000/svg">
<g id="mdi:fire">
<path id="Subtract" fill-rule="evenodd" clip-rule="evenodd" d="M17.0427 10.5216C17.2597 10.7356 17.4816 10.9545 17.6699 11.2002C17.6699 11.2002 18.2298 12.0003 18.4398 12.4603L18.5698 12.7203C19.5096 15.0003 18.8697 17.6604 17.0401 19.3205C15.4004 20.8005 13.1108 21.1905 10.9712 20.9205C8.96153 20.6705 7.09187 19.4305 6.01207 17.7004C5.71213 17.1704 5.44218 16.5704 5.3022 15.9704C5.13223 15.4704 5.07224 14.9703 5.01225 14.4703C4.88228 12.3003 5.79211 10.0002 7.46181 8.64016C6.70194 10.2802 6.88191 12.3303 8.01171 13.7603C8.04748 13.8251 8.09493 13.8828 8.15168 13.9303C8.34165 14.0903 8.5816 14.1503 8.81156 14.0503C9.01152 13.9703 9.16149 13.7703 9.16149 13.5503C9.16149 13.4203 9.1215 13.3203 9.08151 13.2203C7.86173 10.0702 8.88155 6.4001 11.4711 4.32004C12.1809 3.75002 13.0108 3.23001 13.9606 3C13.0108 4.85005 13.3407 7.26012 14.8305 8.72016C15.1822 9.06645 15.5701 9.35231 15.9595 9.6392C16.2785 9.87425 16.5984 10.11 16.9001 10.3802C16.9471 10.4272 16.9948 10.4743 17.0427 10.5216ZM13.2749 20.0228C14.6556 20.0228 15.7275 19.0555 15.7275 17.6748C15.7275 16.6127 15.3346 16.1451 14.905 15.634C14.3874 15.018 13.8167 14.3388 13.8167 12.4797C12.1533 13.9159 10.7749 16.1421 10.7749 17.5228C10.7749 18.9036 11.8942 20.0228 13.2749 20.0228Z" fill="#FAFAF9"/>
</g>
</svg>
