<svg width="160" height="160" viewBox="0 0 160 160" fill="none" xmlns="http://www.w3.org/2000/svg">
<g id="Symbol">
<path id="Union" d="M75.3418 6.43802C100.802 -3.45957 129.654 8.70416 140.254 34.0512L140.577 34.8409C145.285 46.6453 145.217 59.1993 141.294 70.3316C146.179 75.0008 150.207 80.7293 152.978 87.3529L153.466 88.5622C163.206 113.618 151.58 141.958 127.05 152.955L125.853 153.474C104.5 162.403 80.4971 155.576 66.7822 138.301C43.3655 144.173 18.5631 132.526 8.44433 109.956L7.92577 108.758C-2.84206 83.0096 9.30174 53.4065 35.0505 42.6377L35.7703 42.3429C38.8213 41.1211 41.9293 40.2175 45.054 39.6178C49.1388 25.405 59.4006 13.0877 74.1325 6.92647L75.3418 6.43802Z" fill="white"/>
<path id="Subtract" d="M79.6483 19.709C98.1002 11.9922 119.315 20.6948 127.032 39.1466C132.066 51.1858 130.109 64.3991 123.016 74.2737C130.296 78.0442 136.344 84.2932 139.755 92.4483C147.471 110.9 138.769 132.114 120.317 139.831C101.865 147.547 80.5761 138.604 72.8593 120.152C72.8183 120.054 72.8995 120.251 72.8593 120.152C71.4913 120.95 70.0125 121.614 68.512 122.241C50.06 129.958 28.8454 121.254 21.1286 102.802C13.4124 84.3507 22.1148 63.137 40.5663 55.4202C46.0756 53.1162 51.8315 52.2772 57.4004 52.723C57.5608 38.7085 65.8964 25.4602 79.6483 19.709ZM87.8453 74.3544C85.068 73.1392 79.1777 73.2951 75.6579 76.2866C69.7489 81.3087 59.8931 79.1622 57.8404 78.3544C55.7878 77.5467 52.7927 77.6544 50.3008 78.6966C44.7032 81.0377 42.063 87.4735 44.4039 93.0712C45.6262 95.9934 47.4749 99.1517 52.2465 100.191C57.018 101.231 63.051 101.071 68.9968 97.3645C74.9427 93.6584 78.1535 94.2682 81.0215 95.2334C83.8895 96.1986 86.054 98.669 88.5088 104.53C90.9636 110.392 96.8849 114.28 99.5481 115.556C102.211 116.832 107.934 117.663 110.584 116.555C116.181 114.214 118.823 107.778 116.482 102.181C115.259 99.257 112.582 97.0201 109.828 95.9986C106.263 94.3065 98.5512 91.0014 96.2065 82.1835C95.081 77.9507 90.6226 75.5695 87.8453 74.3544ZM104.449 44.9391C102.108 39.3414 95.6712 36.7003 90.0734 39.0412C84.4759 41.3824 81.8356 47.8193 84.1766 53.4169C86.5177 59.0144 92.9536 61.6535 98.5512 59.3127C104.149 56.9717 106.79 50.5367 104.449 44.9391Z" fill="#FF6F31"/>
</g>
</svg>
