<svg width="19" height="18" viewBox="0 0 19 18" fill="none" xmlns="http://www.w3.org/2000/svg">
<g clip-path="url(#clip0_3198_3582)">
<path d="M11.4604 0C10.5107 1.84989 10.8411 4.2597 12.3305 5.71973C12.9704 6.34974 13.7309 6.77987 14.4008 7.37988C14.6607 7.63986 14.9404 7.90022 15.1703 8.2002C15.1753 8.20734 15.7307 9.00197 15.9399 9.45996L16.0697 9.7207C17.0094 12.0006 16.3699 14.6603 14.5404 16.3203C12.9007 17.8004 10.6107 18.1909 8.47111 17.9209C6.46157 17.6708 4.59188 16.4302 3.51212 14.7002C3.21228 14.1703 2.94213 13.5705 2.80216 12.9707C2.63223 12.4708 2.5721 11.9706 2.51212 11.4707C2.38215 9.30067 3.29266 7.00067 4.96232 5.64062C4.20261 7.28063 4.38239 9.33078 5.51212 10.7607C5.54787 10.8254 5.59515 10.8832 5.65177 10.9307C5.84171 11.0906 6.08202 11.1507 6.31193 11.0508C6.51175 10.9708 6.66132 10.7706 6.66154 10.5508C6.66154 10.4209 6.62142 10.3206 6.58146 10.2207C5.36172 7.07072 6.38177 3.40041 8.97111 1.32031C9.68087 0.750387 10.5107 0.230063 11.4604 0ZM10.7748 9.93945C9.1119 11.3755 8.27497 13.1419 8.27482 14.5225C8.27482 15.903 9.39429 17.0223 10.7748 17.0225C12.1555 17.0225 13.2279 16.0555 13.2279 14.6748C13.2279 12.3329 10.7751 13.3406 10.7748 9.93945Z" fill="#EBEAE9"/>
<mask id="mask0_3198_3582" style="mask-type:alpha" maskUnits="userSpaceOnUse" x="2" y="0" width="15" height="19">
<path d="M11.4604 0C10.5107 1.84989 10.8411 4.2597 12.3305 5.71973C12.9704 6.34974 13.7309 6.77987 14.4008 7.37988C14.6607 7.63986 14.9404 7.90022 15.1703 8.2002C15.1753 8.20734 15.7307 9.00197 15.9399 9.45996L16.0697 9.7207C17.0094 12.0006 16.3699 14.6603 14.5404 16.3203C12.9007 17.8004 10.6107 18.1909 8.47111 17.9209C6.46157 17.6708 4.59188 16.4302 3.51212 14.7002C3.21228 14.1703 2.94213 13.5705 2.80216 12.9707C2.63223 12.4708 2.5721 11.9706 2.51212 11.4707C2.38215 9.30067 3.29266 7.00067 4.96232 5.64062C4.20261 7.28063 4.38239 9.33078 5.51212 10.7607C5.54787 10.8254 5.59515 10.8832 5.65177 10.9307C5.84171 11.0906 6.08202 11.1507 6.31193 11.0508C6.51175 10.9708 6.66132 10.7706 6.66154 10.5508C6.66154 10.4209 6.62142 10.3206 6.58146 10.2207C5.36172 7.07072 6.38177 3.40041 8.97111 1.32031C9.68087 0.750387 10.5107 0.230063 11.4604 0ZM10.7748 9.93945C9.1119 11.3755 8.27497 13.1419 8.27482 14.5225C8.27482 15.903 9.39429 17.0223 10.7748 17.0225C12.1555 17.0225 13.2279 16.0555 13.2279 14.6748C13.2279 12.3329 10.7751 13.3406 10.7748 9.93945Z" fill="#FF6F31"/>
</mask>
<g mask="url(#mask0_3198_3582)">
<rect x="2.49988" y="5.4" width="14" height="12.6" fill="#FF6F31"/>
</g>
</g>
<defs>
<clipPath id="clip0_3198_3582">
<rect width="18" height="18" fill="white" transform="translate(0.5)"/>
</clipPath>
</defs>
</svg>
