<svg width="19" height="18" viewBox="0 0 19 18" fill="none" xmlns="http://www.w3.org/2000/svg">
<g clip-path="url(#clip0_3198_3600)">
<path d="M11.4612 0C10.5115 1.8499 10.8409 4.25965 12.3304 5.71973C12.9702 6.34974 13.7308 6.77987 14.4007 7.37988C14.6606 7.63988 14.9403 7.9002 15.1702 8.2002C15.1722 8.2031 15.73 9.00073 15.9397 9.45996L16.0696 9.7207C17.0093 12.0007 16.3698 14.6603 14.5403 16.3203C12.9006 17.8004 10.6106 18.1909 8.47099 17.9209C6.46148 17.6708 4.59175 16.4302 3.512 14.7002C3.21216 14.1703 2.94201 13.5705 2.80204 12.9707C2.63211 12.4708 2.57198 11.9706 2.512 11.4707C2.38203 9.30069 3.29257 7.00068 4.9622 5.64062C4.2025 7.28062 4.38228 9.33079 5.512 10.7607C5.54775 10.8254 5.59501 10.8832 5.65165 10.9307C5.84157 11.0906 6.0819 11.1507 6.31181 11.0508C6.51162 10.9708 6.6612 10.7706 6.66142 10.5508C6.66142 10.4209 6.6213 10.3206 6.58134 10.2207C5.36161 7.07074 6.38169 3.40042 8.97099 1.32031C9.68086 0.750296 10.5114 0.230007 11.4612 0ZM10.7747 9.93945C9.11181 11.3755 8.27485 13.1419 8.2747 14.5225C8.2747 15.903 9.3942 17.0222 10.7747 17.0225C12.1554 17.0225 13.2278 16.0555 13.2278 14.6748C13.2278 12.3329 10.7749 13.3406 10.7747 9.93945Z" fill="#EBEAE9"/>
<mask id="mask0_3198_3600" style="mask-type:alpha" maskUnits="userSpaceOnUse" x="2" y="0" width="15" height="19">
<path d="M11.4612 0C10.5115 1.8499 10.8409 4.25965 12.3304 5.71973C12.9702 6.34974 13.7308 6.77987 14.4007 7.37988C14.6606 7.63988 14.9403 7.9002 15.1702 8.2002C15.1722 8.2031 15.73 9.00073 15.9397 9.45996L16.0696 9.7207C17.0093 12.0007 16.3698 14.6603 14.5403 16.3203C12.9006 17.8004 10.6106 18.1909 8.47099 17.9209C6.46148 17.6708 4.59175 16.4302 3.512 14.7002C3.21216 14.1703 2.94201 13.5705 2.80204 12.9707C2.63211 12.4708 2.57198 11.9706 2.512 11.4707C2.38203 9.30069 3.29257 7.00068 4.9622 5.64062C4.2025 7.28062 4.38228 9.33079 5.512 10.7607C5.54775 10.8254 5.59501 10.8832 5.65165 10.9307C5.84157 11.0906 6.0819 11.1507 6.31181 11.0508C6.51162 10.9708 6.6612 10.7706 6.66142 10.5508C6.66142 10.4209 6.6213 10.3206 6.58134 10.2207C5.36161 7.07074 6.38169 3.40042 8.97099 1.32031C9.68086 0.750296 10.5114 0.230007 11.4612 0ZM10.7747 9.93945C9.11181 11.3755 8.27485 13.1419 8.2747 14.5225C8.2747 15.903 9.3942 17.0222 10.7747 17.0225C12.1554 17.0225 13.2278 16.0555 13.2278 14.6748C13.2278 12.3329 10.7749 13.3406 10.7747 9.93945Z" fill="#FF6F31"/>
</mask>
<g mask="url(#mask0_3198_3600)">
<rect x="2.49976" y="1.80033" width="14" height="16.2" fill="#FF6F31"/>
</g>
</g>
<defs>
<clipPath id="clip0_3198_3600">
<rect width="18" height="18" fill="white" transform="translate(0.5)"/>
</clipPath>
</defs>
</svg>
