<svg width="19" height="18" viewBox="0 0 19 18" fill="none" xmlns="http://www.w3.org/2000/svg">
<g clip-path="url(#clip0_3198_3527)">
<path d="M11.4606 0C10.5109 1.84996 10.8412 4.25969 12.3307 5.71973C12.9705 6.34966 13.7303 6.78 14.4001 7.37988C14.66 7.63989 14.9406 7.90019 15.1706 8.2002C15.18 8.2137 15.7319 9.00386 15.9401 9.45996L16.07 9.7207C17.0095 12.0006 16.37 14.6603 14.5407 16.3203C12.901 17.8003 10.611 18.1909 8.47136 17.9209C6.46173 17.6709 4.59218 16.4302 3.51237 14.7002C3.21251 14.1703 2.9424 13.5706 2.80241 12.9707C2.63249 12.4708 2.57235 11.9706 2.51237 11.4707C2.38241 9.30085 3.29221 7.00071 4.96159 5.64062C4.20202 7.28058 4.38271 9.33086 5.51237 10.7607C5.54811 10.8253 5.59543 10.8832 5.65202 10.9307C5.84195 11.0905 6.08232 11.1507 6.31218 11.0508C6.5119 10.9708 6.66157 10.7705 6.66179 10.5508C6.66179 10.4209 6.62166 10.3206 6.58171 10.2207C5.36195 7.07065 6.3819 3.40038 8.97136 1.32031C9.68118 0.750336 10.5109 0.230031 11.4606 0ZM10.7751 9.93945C9.11205 11.3755 8.27522 13.1419 8.27507 14.5225C8.27507 15.9031 9.39441 17.0224 10.7751 17.0225C12.1558 17.0225 13.2282 16.0555 13.2282 14.6748C13.2282 12.3329 10.7753 13.3406 10.7751 9.93945Z" fill="#EBEAE9"/>
<mask id="mask0_3198_3527" style="mask-type:alpha" maskUnits="userSpaceOnUse" x="2" y="0" width="15" height="19">
<path d="M11.4606 0C10.5109 1.84996 10.8412 4.25969 12.3307 5.71973C12.9705 6.34966 13.7303 6.78 14.4001 7.37988C14.66 7.63989 14.9406 7.90019 15.1706 8.2002C15.18 8.2137 15.7319 9.00386 15.9401 9.45996L16.07 9.7207C17.0095 12.0006 16.37 14.6603 14.5407 16.3203C12.901 17.8003 10.611 18.1909 8.47136 17.9209C6.46173 17.6709 4.59218 16.4302 3.51237 14.7002C3.21251 14.1703 2.9424 13.5706 2.80241 12.9707C2.63249 12.4708 2.57235 11.9706 2.51237 11.4707C2.38241 9.30085 3.29221 7.00071 4.96159 5.64062C4.20202 7.28058 4.38271 9.33086 5.51237 10.7607C5.54811 10.8253 5.59543 10.8832 5.65202 10.9307C5.84195 11.0905 6.08232 11.1507 6.31218 11.0508C6.5119 10.9708 6.66157 10.7705 6.66179 10.5508C6.66179 10.4209 6.62166 10.3206 6.58171 10.2207C5.36195 7.07065 6.3819 3.40038 8.97136 1.32031C9.68118 0.750336 10.5109 0.230031 11.4606 0ZM10.7751 9.93945C9.11205 11.3755 8.27522 13.1419 8.27507 14.5225C8.27507 15.9031 9.39441 17.0224 10.7751 17.0225C12.1558 17.0225 13.2282 16.0555 13.2282 14.6748C13.2282 12.3329 10.7753 13.3406 10.7751 9.93945Z" fill="#FF6F31"/>
</mask>
<g mask="url(#mask0_3198_3527)">
<rect x="2.5" y="16.2048" width="14" height="1.79516" fill="#FF6F31"/>
</g>
</g>
<defs>
<clipPath id="clip0_3198_3527">
<rect width="18" height="18" fill="white" transform="translate(0.5)"/>
</clipPath>
</defs>
</svg>
