<svg width="18" height="18" viewBox="0 0 18 18" fill="none" xmlns="http://www.w3.org/2000/svg">
<g clip-path="url(#clip0_3198_3591)">
<path d="M10.9609 0C10.0111 1.85001 10.3413 4.25968 11.831 5.71973C12.4708 6.34969 13.2305 6.77995 13.9003 7.37988C14.1602 7.63983 14.4399 7.90027 14.6698 8.2002C14.6698 8.2002 15.2303 8.99992 15.4404 9.45996L15.5702 9.7207C16.5098 12.0007 15.8695 14.6604 14.04 16.3203C12.4003 17.8002 10.1111 18.1908 7.9716 17.9209C5.96197 17.6709 4.09242 16.4302 3.01262 14.7002C2.71275 14.1703 2.44265 13.5706 2.30266 12.9707C2.13273 12.4708 2.07259 11.9706 2.01262 11.4707C1.88265 9.3008 2.79238 7.0007 4.46184 5.64062C3.70223 7.28059 3.88196 9.33084 5.01164 10.7607C5.0474 10.8255 5.09558 10.8832 5.15227 10.9307C5.34204 11.0903 5.58179 11.1504 5.81145 11.0508C6.01127 10.9708 6.16182 10.7706 6.16203 10.5508C6.16203 10.421 6.12189 10.3206 6.08196 10.2207C4.86218 7.07061 5.88208 3.40037 8.4716 1.32031C9.18146 0.750309 10.0111 0.230008 10.9609 0ZM10.2753 9.93945C8.61223 11.3755 7.77547 13.1419 7.77532 14.5225C7.77532 15.9032 8.8946 17.0225 10.2753 17.0225C11.656 17.0224 12.7274 16.0555 12.7275 14.6748C12.7275 12.3329 10.2756 13.3406 10.2753 9.93945Z" fill="#EBEAE9"/>
<mask id="mask0_3198_3591" style="mask-type:alpha" maskUnits="userSpaceOnUse" x="2" y="0" width="15" height="19">
<path d="M10.9607 0C10.0109 1.85001 10.3412 4.25968 11.8309 5.71973C12.4707 6.34969 13.2304 6.77995 13.9002 7.37988C14.1601 7.63983 14.4398 7.90027 14.6697 8.2002C14.6697 8.2002 15.2302 8.99992 15.4402 9.45996L15.5701 9.7207C16.5097 12.0007 15.8694 14.6604 14.0398 16.3203C12.4002 17.8002 10.111 18.1908 7.97148 17.9209C5.96185 17.6709 4.0923 16.4302 3.0125 14.7002C2.71262 14.1703 2.44253 13.5706 2.30254 12.9707C2.13261 12.4708 2.07247 11.9706 2.0125 11.4707C1.88253 9.3008 2.79226 7.0007 4.46172 5.64062C3.70211 7.28059 3.88184 9.33084 5.01152 10.7607C5.04728 10.8255 5.09546 10.8832 5.15215 10.9307C5.34192 11.0903 5.58166 11.1504 5.81133 11.0508C6.01114 10.9708 6.16169 10.7706 6.16191 10.5508C6.16191 10.421 6.12177 10.3206 6.08183 10.2207C4.86206 7.07061 5.88196 3.40037 8.47148 1.32031C9.18134 0.750309 10.0109 0.230008 10.9607 0ZM10.2752 9.93945C8.6121 11.3755 7.77535 13.1419 7.77519 14.5225C7.77519 15.9032 8.89448 17.0225 10.2752 17.0225C11.6559 17.0224 12.7273 16.0555 12.7273 14.6748C12.7273 12.3329 10.2754 13.3406 10.2752 9.93945Z" fill="#FF6F31"/>
</mask>
<g mask="url(#mask0_3198_3591)">
<rect x="1.99976" y="3.6" width="14" height="14.4" fill="#FF6F31"/>
</g>
</g>
<defs>
<clipPath id="clip0_3198_3591">
<rect width="18" height="18" fill="white"/>
</clipPath>
</defs>
</svg>
