<svg width="18" height="18" viewBox="0 0 18 18" fill="none" xmlns="http://www.w3.org/2000/svg">
<g clip-path="url(#clip0_3198_3554)">
<path d="M10.961 0C10.0112 1.85005 10.3414 4.25968 11.8311 5.71973C12.471 6.34972 13.2306 6.77991 13.9004 7.37988C14.1604 7.63986 14.44 7.90024 14.67 8.2002C14.67 8.2002 15.2305 8.99993 15.4405 9.45996L15.5704 9.7207C16.5099 12.0007 15.8696 14.6604 14.0401 16.3203C12.4005 17.8002 10.1112 18.1908 7.97173 17.9209C5.96211 17.6709 4.09255 16.4302 3.01274 14.7002C2.71286 14.1703 2.44278 13.5706 2.30278 12.9707C2.13286 12.4708 2.07272 11.9706 2.01274 11.4707C1.88277 9.30076 2.79244 7.00069 4.46196 5.64062C3.70232 7.2806 3.88207 9.33082 5.01177 10.7607C5.04752 10.8255 5.09572 10.8832 5.15239 10.9307C5.34219 11.0903 5.5819 11.1505 5.81157 11.0508C6.01139 10.9708 6.16194 10.7706 6.16216 10.5508C6.16216 10.421 6.12201 10.3205 6.08208 10.2207C4.8623 7.07061 5.8822 3.40037 8.47173 1.32031C9.18157 0.750336 10.0112 0.229993 10.961 0ZM10.2754 9.93945C8.61228 11.3755 7.77559 13.1418 7.77544 14.5225C7.77544 15.9032 8.89473 17.0225 10.2754 17.0225C11.656 17.0224 12.7276 16.0554 12.7276 14.6748C12.7276 12.3329 10.2757 13.3406 10.2754 9.93945Z" fill="#EBEAE9"/>
<mask id="mask0_3198_3554" style="mask-type:alpha" maskUnits="userSpaceOnUse" x="2" y="0" width="15" height="19">
<path d="M10.961 0C10.0112 1.85005 10.3414 4.25968 11.8311 5.71973C12.471 6.34972 13.2306 6.77991 13.9004 7.37988C14.1604 7.63986 14.44 7.90024 14.67 8.2002C14.67 8.2002 15.2305 8.99993 15.4405 9.45996L15.5704 9.7207C16.5099 12.0007 15.8696 14.6604 14.0401 16.3203C12.4005 17.8002 10.1112 18.1908 7.97173 17.9209C5.96211 17.6709 4.09255 16.4302 3.01274 14.7002C2.71286 14.1703 2.44278 13.5706 2.30278 12.9707C2.13286 12.4708 2.07272 11.9706 2.01274 11.4707C1.88277 9.30076 2.79244 7.00069 4.46196 5.64062C3.70232 7.2806 3.88207 9.33082 5.01177 10.7607C5.04752 10.8255 5.09572 10.8832 5.15239 10.9307C5.34219 11.0903 5.5819 11.1505 5.81157 11.0508C6.01139 10.9708 6.16194 10.7706 6.16216 10.5508C6.16216 10.421 6.12201 10.3205 6.08208 10.2207C4.8623 7.07061 5.8822 3.40037 8.47173 1.32031C9.18157 0.750336 10.0112 0.229993 10.961 0ZM10.2754 9.93945C8.61228 11.3755 7.77559 13.1418 7.77544 14.5225C7.77544 15.9032 8.89473 17.0225 10.2754 17.0225C11.656 17.0224 12.7276 16.0554 12.7276 14.6748C12.7276 12.3329 10.2757 13.3406 10.2754 9.93945Z" fill="#FF6F31"/>
</mask>
<g mask="url(#mask0_3198_3554)">
<rect x="2" y="10.8003" width="14" height="7.2" fill="#FF6F31"/>
</g>
</g>
<defs>
<clipPath id="clip0_3198_3554">
<rect width="18" height="18" fill="white"/>
</clipPath>
</defs>
</svg>
