<svg width="19" height="18" viewBox="0 0 19 18" fill="none" xmlns="http://www.w3.org/2000/svg">
<g clip-path="url(#clip0_3198_3564)">
<path d="M11.4605 0C10.5108 1.84992 10.8412 4.2597 12.3306 5.71973C12.9704 6.34962 13.7302 6.78005 14.3999 7.37988C14.6599 7.63989 14.9405 7.90019 15.1705 8.2002C15.1772 8.20988 15.7312 9.00272 15.94 9.45996L16.0699 9.7207C17.0095 12.0006 16.37 14.6603 14.5406 16.3203C12.9009 17.8004 10.6108 18.1909 8.47123 17.9209C6.46166 17.6708 4.59202 16.4302 3.51225 14.7002C3.2124 14.1703 2.94226 13.5705 2.80229 12.9707C2.63236 12.4708 2.57222 11.9706 2.51225 11.4707C2.38227 9.30064 3.29275 7.00066 4.96244 5.64062C4.20271 7.28063 4.38251 9.33077 5.51225 10.7607C5.54799 10.8254 5.59528 10.8832 5.6519 10.9307C5.84184 11.0906 6.08215 11.1508 6.31205 11.0508C6.51185 10.9708 6.66144 10.7706 6.66166 10.5508C6.66166 10.4209 6.62154 10.3206 6.58158 10.2207C5.36184 7.07069 6.38185 3.4004 8.97123 1.32031C9.68101 0.750371 10.5108 0.230052 11.4605 0ZM10.7749 9.93945C9.11199 11.3755 8.27509 13.1419 8.27494 14.5225C8.27494 15.9031 9.39437 17.0223 10.7749 17.0225C12.1556 17.0225 13.228 16.0555 13.2281 14.6748C13.2281 12.3329 10.7752 13.3406 10.7749 9.93945Z" fill="#EBEAE9"/>
<mask id="mask0_3198_3564" style="mask-type:alpha" maskUnits="userSpaceOnUse" x="2" y="0" width="15" height="19">
<path d="M11.4604 0C10.5107 1.84992 10.841 4.2597 12.3305 5.71973C12.9702 6.34962 13.73 6.78005 14.3998 7.37988C14.6598 7.63989 14.9404 7.90019 15.1703 8.2002C15.1771 8.20988 15.7311 9.00272 15.9399 9.45996L16.0697 9.7207C17.0094 12.0006 16.3699 14.6603 14.5404 16.3203C12.9007 17.8004 10.6107 18.1909 8.47111 17.9209C6.46153 17.6708 4.5919 16.4302 3.51213 14.7002C3.21227 14.1703 2.94214 13.5705 2.80216 12.9707C2.63223 12.4708 2.5721 11.9706 2.51213 11.4707C2.38215 9.30064 3.29263 7.00066 4.96232 5.64062C4.20259 7.28063 4.38239 9.33077 5.51213 10.7607C5.54787 10.8254 5.59516 10.8832 5.65177 10.9307C5.84172 11.0906 6.08203 11.1508 6.31193 11.0508C6.51173 10.9708 6.66132 10.7706 6.66154 10.5508C6.66154 10.4209 6.62142 10.3206 6.58146 10.2207C5.36172 7.07069 6.38173 3.4004 8.97111 1.32031C9.68089 0.750371 10.5107 0.230052 11.4604 0ZM10.7748 9.93945C9.11187 11.3755 8.27497 13.1419 8.27482 14.5225C8.27482 15.9031 9.39425 17.0223 10.7748 17.0225C12.1555 17.0225 13.2279 16.0555 13.2279 14.6748C13.2279 12.3329 10.7751 13.3406 10.7748 9.93945Z" fill="#FF6F31"/>
</mask>
<g mask="url(#mask0_3198_3564)">
<rect x="2.49988" y="9" width="14" height="9" fill="#FF6F31"/>
</g>
</g>
<defs>
<clipPath id="clip0_3198_3564">
<rect width="18" height="18" fill="white" transform="translate(0.5)"/>
</clipPath>
</defs>
</svg>
