<svg width="19" height="18" viewBox="0 0 19 18" fill="none" xmlns="http://www.w3.org/2000/svg">
<g clip-path="url(#clip0_3198_3545)">
<path d="M11.4605 0C10.5108 1.84994 10.8411 4.25969 12.3306 5.71973C12.9704 6.34964 13.7301 6.78002 14.3999 7.37988C14.6599 7.63989 14.9405 7.90019 15.1705 8.2002C15.1786 8.21189 15.7315 9.00331 15.94 9.45996L16.0699 9.7207C17.0094 12.0006 16.3699 14.6603 14.5406 16.3203C12.9009 17.8004 10.6108 18.1909 8.47123 17.9209C6.46162 17.6709 4.59204 16.4302 3.51225 14.7002C3.21239 14.1703 2.94227 13.5706 2.80229 12.9707C2.63236 12.4708 2.57222 11.9706 2.51225 11.4707C2.38227 9.30064 3.29275 7.00066 4.96244 5.64062C4.20269 7.28064 4.3825 9.33076 5.51225 10.7607C5.54799 10.8254 5.59529 10.8832 5.6519 10.9307C5.84183 11.0905 6.08217 11.1508 6.31205 11.0508C6.51182 10.9708 6.66144 10.7706 6.66166 10.5508C6.66166 10.4209 6.62153 10.3206 6.58158 10.2207C5.36183 7.07067 6.38181 3.40039 8.97123 1.32031C9.68103 0.750354 10.5108 0.230042 11.4605 0ZM10.7749 9.93945C9.11196 11.3755 8.2751 13.1419 8.27494 14.5225C8.27494 15.9031 9.39433 17.0223 10.7749 17.0225C12.1556 17.0225 13.228 16.0555 13.2281 14.6748C13.2281 12.3329 10.7752 13.3406 10.7749 9.93945Z" fill="#EBEAE9"/>
<mask id="mask0_3198_3545" style="mask-type:alpha" maskUnits="userSpaceOnUse" x="2" y="0" width="15" height="19">
<path d="M11.4605 0C10.5108 1.84994 10.8411 4.25969 12.3306 5.71973C12.9704 6.34964 13.7301 6.78002 14.3999 7.37988C14.6599 7.63989 14.9405 7.90019 15.1705 8.2002C15.1786 8.21189 15.7315 9.00331 15.94 9.45996L16.0699 9.7207C17.0094 12.0006 16.3699 14.6603 14.5406 16.3203C12.9009 17.8004 10.6108 18.1909 8.47123 17.9209C6.46162 17.6709 4.59204 16.4302 3.51225 14.7002C3.21239 14.1703 2.94227 13.5706 2.80229 12.9707C2.63236 12.4708 2.57222 11.9706 2.51225 11.4707C2.38227 9.30064 3.29275 7.00066 4.96244 5.64062C4.20269 7.28064 4.3825 9.33076 5.51225 10.7607C5.54799 10.8254 5.59529 10.8832 5.6519 10.9307C5.84183 11.0905 6.08217 11.1508 6.31205 11.0508C6.51182 10.9708 6.66144 10.7706 6.66166 10.5508C6.66166 10.4209 6.62153 10.3206 6.58158 10.2207C5.36183 7.07067 6.38181 3.40039 8.97123 1.32031C9.68103 0.750354 10.5108 0.230042 11.4605 0ZM10.7749 9.93945C9.11196 11.3755 8.2751 13.1419 8.27494 14.5225C8.27494 15.9031 9.39433 17.0223 10.7749 17.0225C12.1556 17.0225 13.228 16.0555 13.2281 14.6748C13.2281 12.3329 10.7752 13.3406 10.7749 9.93945Z" fill="#FF6F31"/>
</mask>
<g mask="url(#mask0_3198_3545)">
<rect x="2.49988" y="12.6" width="14" height="5.4" fill="#FF6F31"/>
</g>
</g>
<defs>
<clipPath id="clip0_3198_3545">
<rect width="18" height="18" fill="white" transform="translate(0.5)"/>
</clipPath>
</defs>
</svg>
