<svg width="18" height="18" viewBox="0 0 18 18" fill="none" xmlns="http://www.w3.org/2000/svg">
<g clip-path="url(#clip0_3198_3536)">
<path d="M10.9611 0C10.0114 1.84986 10.3409 4.25964 11.8302 5.71973C12.4701 6.34973 13.2307 6.77988 13.9006 7.37988C14.1605 7.63987 14.4401 7.90022 14.6701 8.2002C14.6701 8.2002 15.2295 8.99988 15.4396 9.45996L15.5705 9.7207C16.51 12.0006 15.8697 14.6604 14.0402 16.3203C12.4006 17.8002 10.1113 18.1908 7.97185 17.9209C5.96222 17.6709 4.09169 16.4302 3.01189 14.7002C2.7121 14.1704 2.44288 13.5704 2.30291 12.9707C2.13298 12.4708 2.07284 11.9706 2.01287 11.4707C1.8829 9.30074 2.79253 7.00069 4.46208 5.64062C3.70243 7.28061 3.88218 9.33081 5.01189 10.7607C5.04763 10.8254 5.09491 10.8832 5.15154 10.9307C5.34143 11.0906 5.58182 11.1506 5.81169 11.0508C6.01151 10.9708 6.16109 10.7706 6.1613 10.5508C6.1613 10.421 6.12213 10.3205 6.0822 10.2207C4.86249 7.07078 5.88165 3.40043 8.47087 1.32031C9.18074 0.750296 10.0113 0.230007 10.9611 0ZM10.2756 9.93945C8.61237 11.3755 7.77571 13.1418 7.77556 14.5225C7.77556 15.9032 8.89485 17.0225 10.2756 17.0225C11.6561 17.0223 12.7277 16.0554 12.7277 14.6748C12.7277 12.3329 10.2758 13.3406 10.2756 9.93945Z" fill="#EBEAE9"/>
<mask id="mask0_3198_3536" style="mask-type:alpha" maskUnits="userSpaceOnUse" x="2" y="0" width="15" height="19">
<path d="M10.961 0C10.0113 1.84986 10.3408 4.25964 11.8301 5.71973C12.47 6.34973 13.2306 6.77988 13.9004 7.37988C14.1604 7.63987 14.44 7.90022 14.67 8.2002C14.67 8.2002 15.2294 8.99988 15.4395 9.45996L15.5704 9.7207C16.5099 12.0006 15.8696 14.6604 14.0401 16.3203C12.4005 17.8002 10.1112 18.1908 7.97173 17.9209C5.9621 17.6709 4.09157 16.4302 3.01177 14.7002C2.71197 14.1704 2.44275 13.5704 2.30278 12.9707C2.13286 12.4708 2.07272 11.9706 2.01274 11.4707C1.88277 9.30074 2.79241 7.00069 4.46196 5.64062C3.7023 7.28061 3.88206 9.33081 5.01177 10.7607C5.04751 10.8254 5.09479 10.8832 5.15142 10.9307C5.3413 11.0906 5.5817 11.1506 5.81157 11.0508C6.01139 10.9708 6.16096 10.7706 6.16118 10.5508C6.16118 10.421 6.12201 10.3205 6.08208 10.2207C4.86237 7.07078 5.88153 3.40043 8.47075 1.32031C9.18062 0.750296 10.0112 0.230007 10.961 0ZM10.2754 9.93945C8.61225 11.3755 7.77559 13.1418 7.77544 14.5225C7.77544 15.9032 8.89473 17.0225 10.2754 17.0225C11.656 17.0223 12.7276 16.0554 12.7276 14.6748C12.7276 12.3329 10.2757 13.3406 10.2754 9.93945Z" fill="#FF6F31"/>
</mask>
<g mask="url(#mask0_3198_3536)">
<rect x="1.99988" y="14.3949" width="14" height="3.6" fill="#FF6F31"/>
</g>
</g>
<defs>
<clipPath id="clip0_3198_3536">
<rect width="18" height="18" fill="white"/>
</clipPath>
</defs>
</svg>
