<svg width="18" height="18" viewBox="0 0 18 18" fill="none" xmlns="http://www.w3.org/2000/svg">
<g clip-path="url(#clip0_3198_3609)">
<path d="M10.9607 0C10.011 1.84999 10.3413 4.25968 11.8309 5.71973C12.4707 6.34967 13.2304 6.77997 13.9002 7.37988C14.1601 7.63982 14.4398 7.90029 14.6697 8.2002C14.6697 8.2002 15.2302 8.99992 15.4402 9.45996L15.5701 9.7207C16.5097 12.0007 15.8694 14.6604 14.0398 16.3203C12.4002 17.8002 10.111 18.1909 7.97148 17.9209C5.96185 17.6709 4.0923 16.4302 3.0125 14.7002C2.71263 14.1703 2.44253 13.5706 2.30254 12.9707C2.13261 12.4708 2.07247 11.9706 2.0125 11.4707C1.88253 9.30083 2.79229 7.00071 4.46172 5.64062C3.70213 7.28059 3.88184 9.33085 5.01152 10.7607C5.04728 10.8255 5.09545 10.8832 5.15215 10.9307C5.34191 11.0903 5.58166 11.1504 5.81133 11.0508C6.01114 10.9708 6.16169 10.7706 6.16191 10.5508C6.16191 10.4209 6.12178 10.3206 6.08183 10.2207C4.86206 7.07063 5.88198 3.40038 8.47148 1.32031C9.18132 0.750319 10.011 0.23002 10.9607 0ZM10.2752 9.93945C8.61214 11.3755 7.77535 13.1419 7.77519 14.5225C7.77519 15.9032 8.89449 17.0224 10.2752 17.0225C11.6559 17.0225 12.7273 16.0555 12.7273 14.6748C12.7273 12.3329 10.2754 13.3406 10.2752 9.93945Z" fill="#EBEAE9"/>
<mask id="mask0_3198_3609" style="mask-type:alpha" maskUnits="userSpaceOnUse" x="2" y="0" width="15" height="19">
<path d="M10.9607 0C10.011 1.84999 10.3413 4.25968 11.8309 5.71973C12.4707 6.34967 13.2304 6.77997 13.9002 7.37988C14.1601 7.63982 14.4398 7.90029 14.6697 8.2002C14.6697 8.2002 15.2302 8.99992 15.4402 9.45996L15.5701 9.7207C16.5097 12.0007 15.8694 14.6604 14.0398 16.3203C12.4002 17.8002 10.111 18.1909 7.97148 17.9209C5.96185 17.6709 4.0923 16.4302 3.0125 14.7002C2.71263 14.1703 2.44253 13.5706 2.30254 12.9707C2.13261 12.4708 2.07247 11.9706 2.0125 11.4707C1.88253 9.30083 2.79229 7.00071 4.46172 5.64062C3.70213 7.28059 3.88184 9.33085 5.01152 10.7607C5.04728 10.8255 5.09545 10.8832 5.15215 10.9307C5.34191 11.0903 5.58166 11.1504 5.81133 11.0508C6.01114 10.9708 6.16169 10.7706 6.16191 10.5508C6.16191 10.4209 6.12178 10.3206 6.08183 10.2207C4.86206 7.07063 5.88198 3.40038 8.47148 1.32031C9.18132 0.750319 10.011 0.23002 10.9607 0ZM10.2752 9.93945C8.61214 11.3755 7.77535 13.1419 7.77519 14.5225C7.77519 15.9032 8.89449 17.0224 10.2752 17.0225C11.6559 17.0225 12.7273 16.0555 12.7273 14.6748C12.7273 12.3329 10.2754 13.3406 10.2752 9.93945Z" fill="#FF6F31"/>
</mask>
<g mask="url(#mask0_3198_3609)">
<rect x="1.99976" width="14" height="18" fill="#FF6F31"/>
</g>
</g>
<defs>
<clipPath id="clip0_3198_3609">
<rect width="18" height="18" fill="white"/>
</clipPath>
</defs>
</svg>
