<svg width="18" height="18" viewBox="0 0 18 18" fill="none" xmlns="http://www.w3.org/2000/svg">
<g clip-path="url(#clip0_3198_3573)">
<path d="M10.9609 0C10.011 1.85003 10.3413 4.25968 11.831 5.71973C12.4708 6.3497 13.2305 6.77993 13.9003 7.37988C14.1602 7.63984 14.4399 7.90025 14.6698 8.2002C14.6698 8.2002 15.2304 8.99993 15.4404 9.45996L15.5702 9.7207C16.5098 12.0007 15.8695 14.6604 14.04 16.3203C12.4003 17.8002 10.1111 18.1908 7.97161 17.9209C5.96197 17.6709 4.09242 16.4302 3.01262 14.7002C2.71274 14.1703 2.44266 13.5706 2.30266 12.9707C2.13274 12.4708 2.07259 11.9706 2.01262 11.4707C1.88265 9.30078 2.79235 7.0007 4.46184 5.64062C3.70222 7.2806 3.88195 9.33083 5.01164 10.7607C5.0474 10.8255 5.09559 10.8832 5.15227 10.9307C5.34205 11.0903 5.58178 11.1505 5.81145 11.0508C6.01127 10.9708 6.16182 10.7706 6.16203 10.5508C6.16203 10.421 6.12189 10.3206 6.08196 10.2207C4.86218 7.07061 5.88208 3.40037 8.47161 1.32031C9.18146 0.750319 10.0111 0.229999 10.9609 0ZM10.2753 9.93945C8.61219 11.3755 7.77547 13.1418 7.77532 14.5225C7.77532 15.9032 8.8946 17.0225 10.2753 17.0225C11.6559 17.0224 12.7274 16.0554 12.7275 14.6748C12.7275 12.3329 10.2756 13.3406 10.2753 9.93945Z" fill="#EBEAE9"/>
<mask id="mask0_3198_3573" style="mask-type:alpha" maskUnits="userSpaceOnUse" x="2" y="0" width="15" height="19">
<path d="M10.9609 0C10.011 1.85003 10.3413 4.25968 11.831 5.71973C12.4708 6.3497 13.2305 6.77993 13.9003 7.37988C14.1602 7.63984 14.4399 7.90025 14.6698 8.2002C14.6698 8.2002 15.2304 8.99993 15.4404 9.45996L15.5702 9.7207C16.5098 12.0007 15.8695 14.6604 14.04 16.3203C12.4003 17.8002 10.1111 18.1908 7.97161 17.9209C5.96197 17.6709 4.09242 16.4302 3.01262 14.7002C2.71274 14.1703 2.44266 13.5706 2.30266 12.9707C2.13274 12.4708 2.07259 11.9706 2.01262 11.4707C1.88265 9.30078 2.79235 7.0007 4.46184 5.64062C3.70222 7.2806 3.88195 9.33083 5.01164 10.7607C5.0474 10.8255 5.09559 10.8832 5.15227 10.9307C5.34205 11.0903 5.58178 11.1505 5.81145 11.0508C6.01127 10.9708 6.16182 10.7706 6.16203 10.5508C6.16203 10.421 6.12189 10.3206 6.08196 10.2207C4.86218 7.07061 5.88208 3.40037 8.47161 1.32031C9.18146 0.750319 10.0111 0.229999 10.9609 0ZM10.2753 9.93945C8.61219 11.3755 7.77547 13.1418 7.77532 14.5225C7.77532 15.9032 8.8946 17.0225 10.2753 17.0225C11.6559 17.0224 12.7274 16.0554 12.7275 14.6748C12.7275 12.3329 10.2756 13.3406 10.2753 9.93945Z" fill="#FF6F31"/>
</mask>
<g mask="url(#mask0_3198_3573)">
<rect x="1.99988" y="7.20033" width="14" height="10.8" fill="#FF6F31"/>
</g>
</g>
<defs>
<clipPath id="clip0_3198_3573">
<rect width="18" height="18" fill="white"/>
</clipPath>
</defs>
</svg>
