<svg width="100" height="100" viewBox="0 0 100 100" fill="none" xmlns="http://www.w3.org/2000/svg">
<g id="Icon_Profile">
<path id="Vector" fill-rule="evenodd" clip-rule="evenodd" d="M49.9999 8.3335C55.4716 8.33347 60.8898 9.41119 65.945 11.5051C71.0003 13.5991 75.5936 16.6682 79.4627 20.5373C83.3318 24.4064 86.401 28.9997 88.495 34.0549C90.5889 39.1102 91.6667 44.5283 91.6667 50.0001C91.6667 73.012 73.0118 91.6669 49.9999 91.6669C26.9881 91.6669 8.33325 73.012 8.33325 50.0001C8.33325 26.9884 26.9881 8.3335 49.9999 8.3335ZM54.1667 54.1669H45.8333C35.5178 54.1669 26.6618 60.4144 22.842 69.3325C28.8858 77.8073 38.7975 83.3335 49.9999 83.3335C61.2022 83.3335 71.1139 77.8073 77.1579 69.3319C73.3381 60.4144 64.4821 54.1669 54.1667 54.1669ZM49.9999 20.8335C43.0963 20.8335 37.4999 26.43 37.4999 33.3335C37.4999 40.237 43.0963 45.8335 49.9999 45.8335C56.9034 45.8335 62.4999 40.237 62.4999 33.3335C62.4999 26.43 56.9036 20.8335 49.9999 20.8335Z" fill="currentColor"/>
</g>
</svg>
