<svg width="19" height="18" viewBox="0 0 19 18" fill="none" xmlns="http://www.w3.org/2000/svg">
<g clip-path="url(#clip0_2738_1967)">
<path d="M11.2109 0C10.261 1.85003 10.5913 4.25968 12.081 5.71973C12.7208 6.3497 13.4805 6.77993 14.1503 7.37988C14.4102 7.63984 14.6899 7.90025 14.9198 8.2002C14.9198 8.2002 15.4804 8.99993 15.6904 9.45996L15.8202 9.7207C16.7598 12.0007 16.1195 14.6604 14.29 16.3203C12.6503 17.8002 10.3611 18.1908 8.22161 17.9209C6.21197 17.6709 4.34242 16.4302 3.26262 14.7002C2.96274 14.1703 2.69266 13.5706 2.55266 12.9707C2.38274 12.4708 2.32259 11.9706 2.26262 11.4707C2.13265 9.30078 3.04235 7.0007 4.71184 5.64062C3.95222 7.2806 4.13195 9.33083 5.26164 10.7607C5.2974 10.8255 5.34559 10.8832 5.40227 10.9307C5.59205 11.0903 5.83178 11.1505 6.06145 11.0508C6.26127 10.9708 6.41182 10.7706 6.41203 10.5508C6.41203 10.421 6.37189 10.3206 6.33196 10.2207C5.11218 7.07061 6.13208 3.40037 8.72161 1.32031C9.43146 0.750319 10.2611 0.229999 11.2109 0ZM10.5253 9.93945C8.86219 11.3755 8.02547 13.1418 8.02532 14.5225C8.02532 15.9032 9.1446 17.0225 10.5253 17.0225C11.9059 17.0224 12.9774 16.0555 12.9775 14.6748C12.9775 12.3329 10.5256 13.3406 10.5253 9.93945Z" fill="#D6D5D2"/>
<mask id="mask0_2738_1967" style="mask-type:alpha" maskUnits="userSpaceOnUse" x="2" y="0" width="15" height="19">
<path d="M11.2109 0C10.261 1.85003 10.5913 4.25968 12.081 5.71973C12.7208 6.3497 13.4805 6.77993 14.1503 7.37988C14.4102 7.63984 14.6899 7.90025 14.9198 8.2002C14.9198 8.2002 15.4804 8.99993 15.6904 9.45996L15.8202 9.7207C16.7598 12.0007 16.1195 14.6604 14.29 16.3203C12.6503 17.8002 10.3611 18.1908 8.22161 17.9209C6.21197 17.6709 4.34242 16.4302 3.26262 14.7002C2.96274 14.1703 2.69266 13.5706 2.55266 12.9707C2.38274 12.4708 2.32259 11.9706 2.26262 11.4707C2.13265 9.30078 3.04235 7.0007 4.71184 5.64062C3.95222 7.2806 4.13195 9.33083 5.26164 10.7607C5.2974 10.8255 5.34559 10.8832 5.40227 10.9307C5.59205 11.0903 5.83178 11.1505 6.06145 11.0508C6.26127 10.9708 6.41182 10.7706 6.41203 10.5508C6.41203 10.421 6.37189 10.3206 6.33196 10.2207C5.11218 7.07061 6.13208 3.40037 8.72161 1.32031C9.43146 0.750319 10.2611 0.229999 11.2109 0ZM10.5253 9.93945C8.86219 11.3755 8.02547 13.1418 8.02532 14.5225C8.02532 15.9032 9.1446 17.0225 10.5253 17.0225C11.9059 17.0224 12.9774 16.0555 12.9775 14.6748C12.9775 12.3329 10.5256 13.3406 10.5253 9.93945Z" fill="#FF6F31"/>
</mask>
<g mask="url(#mask0_2738_1967)">
<rect x="2.12012" y="9.28174" width="14.1304" height="8.71851" fill="#FF6F31"/>
</g>
</g>
<defs>
<clipPath id="clip0_2738_1967">
<rect width="18" height="18" fill="white" transform="translate(0.25)"/>
</clipPath>
</defs>
</svg>
