<svg width="103" height="66" viewBox="0 0 103 66" fill="none" xmlns="http://www.w3.org/2000/svg">
<path d="M5.51074 15.4468C5.51074 10.7935 9.28298 7.02124 13.9363 7.02124H93.9788C98.6321 7.02124 102.404 10.7935 102.404 15.4468V66H5.51074V15.4468Z" fill="#FF6F31"/>
<path d="M0.595703 15.4468C0.595703 10.7935 4.36794 7.02124 9.02123 7.02124H89.0638C93.7171 7.02124 97.4893 10.7935 97.4893 15.4468V66H0.595703V15.4468Z" fill="#FFF1EA"/>
<rect x="70.8086" width="8.42553" height="14.0426" rx="4.21277" fill="#FF6F31"/>
<rect x="44.1277" width="8.42553" height="14.0426" rx="4.21277" fill="#FF6F31"/>
<rect x="17.4468" width="8.42553" height="14.0426" rx="4.21277" fill="#FF6F31"/>
<path d="M11.8298 40.0212H84.8511" stroke="#FFC7AD" stroke-width="2.80851" stroke-linecap="round"/>
<path d="M11.8298 55.4681H84.8511" stroke="#FFC7AD" stroke-width="2.80851" stroke-linecap="round"/>
<path d="M18.8511 25.9788V36.5107" stroke="#FF6F31" stroke-width="1.40426" stroke-linecap="square"/>
<path d="M12.21 37.2689C11.6793 37.2689 11.2411 36.8369 11.2473 36.3062C11.2411 35.7879 11.6793 35.3621 12.21 35.3559C12.7222 35.3621 13.1603 35.7879 13.1603 36.3062C13.1603 36.8369 12.7222 37.2689 12.21 37.2689ZM15.6534 37.2689C15.1227 37.2689 14.6846 36.8369 14.6907 36.3062C14.6846 35.7879 15.1227 35.3621 15.6534 35.3559C16.1656 35.3621 16.6038 35.7879 16.6038 36.3062C16.6038 36.8369 16.1656 37.2689 15.6534 37.2689Z" fill="#D95E2A"/>
</svg>
