<svg width="32" height="32" viewBox="0 0 32 32" fill="none" xmlns="http://www.w3.org/2000/svg">
<rect width="32" height="32"/>
<path d="M20 8L12 16L20 24" stroke="white" stroke-width="2" stroke-linecap="round" stroke-linejoin="round"/>
<path d="M416.292 792.866H417.792V794.366H416.292V792.866ZM416.292 -82.0003V-83.5003H417.792V-82.0003H416.292ZM-1044.5 -82.0003V-80.5003H-1046V-82.0003H-1044.5ZM-1044.5 -686.5L-1035.84 -671.5H-1053.16L-1044.5 -686.5ZM416.292 792.866H414.792V-82.0003H416.292H417.792V792.866H416.292ZM416.292 -82.0003V-80.5003H-1044.5V-82.0003V-83.5003H416.292V-82.0003ZM-1044.5 -82.0003H-1046V-673H-1044.5H-1043V-82.0003H-1044.5ZM416.292 792.866V794.366H332.59V792.866V791.366H416.292V792.866Z" fill="black"/>
</svg>
