<svg width="24" height="24" viewBox="0 0 24 24" fill="none" xmlns="http://www.w3.org/2000/svg">
<path d="M14.1719 3C14.7022 3.00008 15.2109 3.21094 15.5859 3.58594L16.707 4.70703C16.8945 4.89453 17.1489 4.99996 17.4141 5H20C20.5304 5 21.039 5.21086 21.4141 5.58594C21.7891 5.96101 22 6.46957 22 7V19C22 19.5304 21.7891 20.039 21.4141 20.4141C21.039 20.7891 20.5304 21 20 21H4C3.46957 21 2.96101 20.7891 2.58594 20.4141C2.21086 20.039 2 19.5304 2 19V7C2 6.46957 2.21086 5.96101 2.58594 5.58594C2.96101 5.21086 3.46957 5 4 5H6.58594C6.8511 4.99996 7.10547 4.89453 7.29297 4.70703L8.41406 3.58594C8.78906 3.21094 9.2978 3.00008 9.82812 3H14.1719ZM12 8C10.6739 8 9.40253 8.52716 8.46484 9.46484C7.52716 10.4025 7 11.6739 7 13C7 14.3261 7.52716 15.5975 8.46484 16.5352C9.40253 17.4728 10.6739 18 12 18C13.3261 18 14.5975 17.4728 15.5352 16.5352C16.4728 15.5975 17 14.3261 17 13C17 11.6739 16.4728 10.4025 15.5352 9.46484C14.5975 8.52716 13.3261 8 12 8ZM12 10C12.7956 10 13.5585 10.3163 14.1211 10.8789C14.6837 11.4415 15 12.2044 15 13C15 13.7956 14.6837 14.5585 14.1211 15.1211C13.5585 15.6837 12.7956 16 12 16C11.2044 16 10.4415 15.6837 9.87891 15.1211C9.3163 14.5585 9 13.7956 9 13C9 12.2044 9.3163 11.4415 9.87891 10.8789C10.4415 10.3163 11.2044 10 12 10ZM19 7C18.4477 7 18 7.44772 18 8C18 8.55228 18.4477 9 19 9C19.5523 9 20 8.55228 20 8C20 7.44772 19.5523 7 19 7Z" fill="#2E2D2B"/>
</svg>
