<svg width="24" height="24" viewBox="0 0 24 24" fill="none" xmlns="http://www.w3.org/2000/svg">
<path d="M11.8791 19.1111C11.8791 19.3469 11.7873 19.573 11.624 19.7397C11.4607 19.9064 11.2391 20 11.0081 20C6.60459 20 3 16.4385 3 12C3 7.56148 6.60459 4 11.0081 4C14.6139 4 17.6843 6.38815 18.6783 9.69007L19.3786 8.48119C19.4961 8.27813 19.6878 8.13102 19.9116 8.07223C20.1353 8.01344 20.3728 8.04779 20.5718 8.1677C20.7708 8.28762 20.9149 8.48329 20.9725 8.71167C21.0301 8.94005 20.9964 9.18242 20.8789 9.38548L18.9861 12.6507C18.8702 12.851 18.6819 12.9969 18.4618 13.0572C18.2416 13.1175 18.0071 13.0872 17.8085 12.973L14.5314 11.0874C14.4318 11.0301 14.3442 10.9532 14.2736 10.8613C14.203 10.7694 14.1509 10.6642 14.1202 10.5517C14.0894 10.4393 14.0807 10.3217 14.0945 10.2058C14.1083 10.0899 14.1443 9.97786 14.2005 9.87615C14.2567 9.77444 14.3319 9.68502 14.422 9.613C14.5121 9.54098 14.6151 9.48776 14.7253 9.4564C14.8355 9.42503 14.9507 9.41613 15.0643 9.43019C15.1779 9.44426 15.2876 9.48102 15.3873 9.53837L17.0967 10.5221C16.4301 7.81037 13.9717 5.77778 11.0093 5.77778C7.5278 5.77778 4.74191 8.58311 4.74191 12C4.74191 15.4169 7.5278 18.2222 11.0081 18.2222C11.2391 18.2222 11.4607 18.3159 11.624 18.4826C11.7873 18.6493 11.8791 18.8754 11.8791 19.1111Z" fill="#FF6F31"/>
</svg>
