<svg width="24" height="24" viewBox="0 0 24 24" fill="none" xmlns="http://www.w3.org/2000/svg">
<path d="M10.268 2C11.0378 0.666665 12.9623 0.666667 13.7321 2L23.2583 18.5C24.0281 19.8333 23.0659 21.5 21.5263 21.5H2.47372C0.934118 21.5 -0.0281308 19.8333 0.74167 18.5L10.268 2Z" fill="#E83A3A"/>
<path d="M12.871 8L12.729 14.9809H11.271L11.1162 8H12.871ZM11.0001 16.9344C10.9936 16.3607 11.4517 15.8893 12.0065 15.8825C12.542 15.8893 13 16.3607 13 16.9344C13 17.5219 12.542 18 12.0065 18C11.4517 18 10.9936 17.5219 11.0001 16.9344Z" fill="white"/>
</svg>
