<svg width="16" height="20" viewBox="0 0 16 20" fill="none" xmlns="http://www.w3.org/2000/svg">
<g id="Location 1" clip-path="url(#clip0_2624_2050)">
<g id="&#235;&#160;&#136;&#236;&#157;&#180;&#236;&#150;&#180; 1">
<path id="Vector" d="M7.22414 19.59C7.57586 20.1333 8.3931 20.1333 8.74483 19.59C14.4448 11.3993 15.5 10.5382 15.5 7.49359C15.5 3.35213 12.1483 0 8 0C3.85172 0 0.5 3.35213 0.5 7.49359C0.5 10.5382 1.51379 11.3993 7.22414 19.59ZM8 10.6099C6.24138 10.6099 4.87586 9.24654 4.87586 7.49359C4.87586 5.74065 6.24138 4.37724 8 4.37724C9.75862 4.37724 11.1241 5.78165 11.1241 7.49359C11.1241 9.20553 9.71724 10.6099 8 10.6099Z" fill="#2E2D2B"/>
</g>
</g>
<defs>
<clipPath id="clip0_2624_2050">
<rect width="15" height="20" fill="white" transform="translate(0.5)"/>
</clipPath>
</defs>
</svg>
