<svg width="24" height="24" viewBox="0 0 24 24" fill="none" xmlns="http://www.w3.org/2000/svg">
<g id="Icon_Profile">
<path id="Vector" fill-rule="evenodd" clip-rule="evenodd" d="M12 2C13.3133 1.99999 14.6136 2.25865 15.8269 2.76119C17.0401 3.26373 18.1425 4.00033 19.0711 4.92891C19.9997 5.8575 20.7363 6.95989 21.2389 8.17315C21.7414 9.3864 22.0001 10.6868 22.0001 12C22.0001 17.5228 17.5229 22 12 22C6.47723 22 2.00006 17.5228 2.00006 12C2.00006 6.47717 6.47723 2 12 2ZM13.0001 13H11.0001C8.52436 13 6.3989 14.4994 5.48217 16.6398C6.93267 18.6737 9.31148 20 12 20C14.6886 20 17.0674 18.6737 18.518 16.6396C17.6012 14.4994 15.4758 13 13.0001 13ZM12 5C10.3432 5 9.00005 6.34316 9.00005 8C9.00005 9.65684 10.3432 11 12 11C13.6569 11 15 9.65684 15 8C15 6.34316 13.6569 5 12 5Z" fill="#D6D5D2"/>
</g>
</svg>
