<svg width="24" height="24" viewBox="0 0 24 24" fill="none" xmlns="http://www.w3.org/2000/svg">
<path d="M15 4C14.4696 4 13.9609 4.20066 13.5858 4.55785C13.2107 4.91503 13 5.39948 13 5.90461V18.0954C13 18.6005 13.2107 19.085 13.5858 19.4422C13.9609 19.7993 14.4696 20 15 20C15.5304 20 16.0391 19.7993 16.4142 19.4422C16.7893 19.085 17 18.6005 17 18.0954V5.90461C16.9988 5.39983 16.7877 4.91605 16.4129 4.55912C16.0381 4.20218 15.5301 4.00115 15 4Z" fill="#2E2D2B"/>
<path fill-rule="evenodd" clip-rule="evenodd" d="M8.47863 15.5909V15.5918H7.32048V19.2608C7.32048 19.6701 6.96144 20 6.51596 20H4.80452C4.35904 20 4 19.6701 4 19.2608V15.5918H3.11886C2.49885 15.5918 2 15.1328 2 14.5698V9.41092C2 8.84179 2.49885 8.38281 3.11886 8.38281H8.47863V8.38837C9.2958 8.38263 10.1054 8.20592 10.8378 7.88149L15 6V17.9853L10.8378 16.1038C10.1031 15.7723 9.29677 15.597 8.47863 15.5909Z" fill="#2E2D2B"/>
<path d="M18.0762 16C19.137 16 20.1545 15.5786 20.9046 14.8284C21.6547 14.0783 22.0762 13.0609 22.0762 12C22.0762 10.9391 21.6547 9.92172 20.9046 9.17157C20.1545 8.42143 19.137 8 18.0762 8L18.0762 11C18.3414 11 18.5957 11.1054 18.7833 11.2929C18.9708 11.4804 19.0762 11.7348 19.0762 12C19.0762 12.2652 18.9708 12.5196 18.7833 12.7071C18.5957 12.8946 18.3414 13 18.0762 13L18.0762 16Z" fill="#2E2D2B"/>
</svg>
