<svg width="24" height="24" viewBox="0 0 24 24" fill="none" xmlns="http://www.w3.org/2000/svg">
<path fill-rule="evenodd" clip-rule="evenodd" d="M10.5861 3.58587C10.94 3.23192 11.4138 3.02354 11.9139 3.00188C12.4139 2.98021 12.9039 3.14685 13.2871 3.46887L13.4141 3.58587L16.4141 6.58587H19.0001C19.5047 6.58571 19.9907 6.77627 20.3607 7.11936C20.7306 7.46245 20.9573 7.93271 20.9951 8.43587L21.0001 8.58587L20.995 18.85C20.9949 19.3544 20.8042 19.8401 20.4612 20.2099C20.1181 20.5797 19.648 20.8062 19.145 20.844L18.995 20.85H4.995C4.49042 20.8502 4.00443 20.6596 3.63445 20.3165C3.26447 19.9734 3.03784 19.5032 3 19L2.995 18.85L3.00012 8.58587C2.99996 8.08129 3.19052 7.5953 3.53361 7.22532C3.8767 6.85534 4.34696 6.62871 4.85012 6.59087L5.00012 6.58587H7.58612L10.5861 3.58587ZM10.0028 15H8.00283C7.73761 15 7.48326 15.1054 7.29572 15.2929C7.10818 15.4804 7.00283 15.7348 7.00283 16C7.00283 16.2652 7.10818 16.5196 7.29572 16.7071C7.48326 16.8946 7.73761 17 8.00283 17H10.0028C10.268 17 10.5224 16.8946 10.7099 16.7071C10.8975 16.5196 11.0028 16.2652 11.0028 16C11.0028 15.7348 10.8975 15.4804 10.7099 15.2929C10.5224 15.1054 10.268 15 10.0028 15ZM14.0028 11H8.00283C7.74795 11.0003 7.5028 11.0979 7.31746 11.2728C7.13212 11.4478 7.02059 11.687 7.00566 11.9414C6.99072 12.1958 7.0735 12.4464 7.23709 12.6418C7.40068 12.8373 7.63273 12.9629 7.88583 12.993L8.00283 13H14.0028C14.2577 12.9997 14.5029 12.9021 14.6882 12.7272C14.8735 12.5522 14.9851 12.313 15 12.0586C15.0149 11.8042 14.9322 11.5536 14.7686 11.3582C14.605 11.1627 14.3729 11.0371 14.1198 11.007L14.0028 11ZM12.7923 5.79204C12.3548 5.35453 11.6454 5.35456 11.2079 5.79207C10.7698 6.2302 10.7705 6.94079 11.2095 7.37804C11.6466 7.8134 12.3535 7.81339 12.7906 7.37807C13.2297 6.94083 13.2304 6.23019 12.7923 5.79204Z" fill="#2E2D2B"/>
</svg>
