<svg width="24" height="24" viewBox="0 0 24 24" fill="none" xmlns="http://www.w3.org/2000/svg">
<path fill-rule="evenodd" clip-rule="evenodd" d="M10.586 3.58587C10.9399 3.23192 11.4137 3.02354 11.9137 3.00188C12.4138 2.98021 12.9038 3.14685 13.287 3.46887L13.414 3.58587L16.414 6.58587H19C19.5046 6.58571 19.9906 6.77627 20.3605 7.11936C20.7305 7.46245 20.9572 7.93271 20.995 8.43587L21 8.58587L20.9949 18.85C20.9948 19.3544 20.8041 19.8401 20.461 20.2099C20.118 20.5797 19.6479 20.8062 19.1449 20.844L18.9949 20.85H4.99488C4.4903 20.8502 4.00431 20.6596 3.63433 20.3165C3.26435 19.9734 3.03772 19.5032 2.99988 19L2.99488 18.85L3 8.58587C2.99984 8.08129 3.1904 7.5953 3.53349 7.22532C3.87658 6.85534 4.34684 6.62871 4.85 6.59087L5 6.58587H7.586L10.586 3.58587ZM10.0027 15H8.00271C7.73749 15 7.48314 15.1054 7.2956 15.2929C7.10806 15.4804 7.00271 15.7348 7.00271 16C7.00271 16.2652 7.10806 16.5196 7.2956 16.7071C7.48314 16.8946 7.73749 17 8.00271 17H10.0027C10.2679 17 10.5223 16.8946 10.7098 16.7071C10.8973 16.5196 11.0027 16.2652 11.0027 16C11.0027 15.7348 10.8973 15.4804 10.7098 15.2929C10.5223 15.1054 10.2679 15 10.0027 15ZM14.0027 11H8.00271C7.74783 11.0003 7.50267 11.0979 7.31734 11.2728C7.132 11.4478 7.02047 11.687 7.00553 11.9414C6.9906 12.1958 7.07338 12.4464 7.23697 12.6418C7.40056 12.8373 7.63261 12.9629 7.88571 12.993L8.00271 13H14.0027C14.2576 12.9997 14.5027 12.9021 14.6881 12.7272C14.8734 12.5522 14.9849 12.313 14.9999 12.0586C15.0148 11.8042 14.932 11.5536 14.7684 11.3582C14.6049 11.1627 14.3728 11.0371 14.1197 11.007L14.0027 11ZM12.7922 5.79204C12.3547 5.35453 11.6453 5.35456 11.2078 5.79207C10.7697 6.2302 10.7703 6.94079 11.2094 7.37804C11.6465 7.8134 12.3533 7.81339 12.7905 7.37807C13.2295 6.94083 13.2303 6.23019 12.7922 5.79204Z" fill="#D6D5D2"/>
</svg>
