<svg width="20" height="20" viewBox="0 0 20 20" fill="none" xmlns="http://www.w3.org/2000/svg">
<g id="Icon_Support">
<g id="Group">
<path id="Vector" d="M12.5 3.33398C12.058 3.33398 11.634 3.5012 11.3215 3.79886C11.0089 4.09651 10.8333 4.50022 10.8333 4.92116V15.0801C10.8333 15.5011 11.0089 15.9048 11.3215 16.2024C11.634 16.5001 12.058 16.6673 12.5 16.6673C12.942 16.6673 13.3659 16.5001 13.6785 16.2024C13.9911 15.9048 14.1667 15.5011 14.1667 15.0801V4.92116C14.1657 4.50051 13.9897 4.09736 13.6774 3.79991C13.3651 3.50247 12.9417 3.33494 12.5 3.33398Z" fill="#FF6F31"/>
<path id="Union" d="M12.4997 14.9873L9.0319 13.4199C8.41955 13.1436 7.74703 12.9973 7.0651 12.9922V12.9932H6.10026V16.0508C6.10021 16.3917 5.80137 16.6668 5.43034 16.667H4.00358C3.63246 16.6669 3.3337 16.3918 3.33366 16.0508V12.9932H2.59928C2.08261 12.9932 1.66666 12.6108 1.66666 12.1416V7.84277C1.6667 7.36853 2.08263 6.98633 2.59928 6.98633H7.0651V6.98926C7.74622 6.98453 8.42145 6.83877 9.0319 6.56836L12.4997 5V14.9873Z" fill="#FF6F31"/>
</g>
<path id="Ellipse 15" d="M15.0631 13.3327C15.9471 13.3327 16.795 12.9815 17.4201 12.3564C18.0452 11.7313 18.3964 10.8834 18.3964 9.99935C18.3964 9.11529 18.0452 8.26745 17.4201 7.64233C16.795 7.01721 15.9471 6.66602 15.0631 6.66602L15.0631 9.16602C15.2841 9.16602 15.4961 9.25381 15.6523 9.41009C15.8086 9.56637 15.8964 9.77834 15.8964 9.99935C15.8964 10.2204 15.8086 10.4323 15.6523 10.5886C15.4961 10.7449 15.2841 10.8327 15.0631 10.8327L15.0631 13.3327Z" fill="#FF6F31"/>
</g>
</svg>
