<svg width="375" height="180" viewBox="0 0 375 180" fill="none" xmlns="http://www.w3.org/2000/svg">
<g clip-path="url(#clip0_3295_6623)">
<rect width="375" height="180" fill="#FFDFCF"/>
<path d="M311 127C311 124.636 310.534 122.296 309.63 120.112C308.725 117.928 307.399 115.944 305.728 114.272C304.056 112.601 302.072 111.275 299.888 110.37C297.704 109.466 295.364 109 293 109C290.636 109 288.296 109.466 286.112 110.37C283.928 111.275 281.944 112.601 280.272 114.272C278.601 115.944 277.275 117.928 276.37 120.112C275.466 122.296 275 124.636 275 127L293 127H311Z" fill="white"/>
<path d="M304.751 125.134C305.181 122.186 307.709 120 310.688 120H330.46C333.519 120 336 122.481 336 125.54C336 128.144 334.187 130.397 331.643 130.953L324.069 132.61C321.622 133.145 319.765 135.144 319.411 137.623L319.236 138.849C318.814 141.804 316.282 144 313.296 144H308.938C305.28 144 302.473 140.754 303.001 137.134L304.751 125.134Z" fill="#6D2B0F"/>
<path d="M71.2487 125.134C70.8188 122.186 68.2908 120 65.3115 120H45.5405C42.4806 120 40 122.481 40 125.54C40 128.144 41.813 130.397 44.3565 130.953L51.9315 132.61C54.378 133.145 56.2348 135.144 56.589 137.623L56.7641 138.849C57.1863 141.804 59.7179 144 62.7038 144H67.0615C70.7199 144 73.5267 140.754 72.9987 137.134L71.2487 125.134Z" fill="#6D2B0F"/>
<circle cx="237.5" cy="125.5" r="28.5" fill="white"/>
<path d="M190.739 59.6545C196.795 60.1422 201.308 65.4466 200.82 71.5021C200.529 75.1237 198.513 78.1907 195.645 79.9689C195.312 80.1752 195.084 80.5196 195.052 80.9099C195.001 81.5482 195.477 82.1073 196.115 82.1588L200.003 82.472C204.089 82.801 207.56 85.5904 208.762 89.5094L210.721 95.9002C211.548 98.6014 209.391 101.286 206.575 101.06L168.48 97.9912C165.664 97.7643 163.964 94.7689 165.213 92.2351L168.169 86.2398C169.982 82.5637 173.856 80.3661 177.941 80.6949L181.847 81.0095C182.483 81.0607 183.039 80.587 183.091 79.9514C183.122 79.5624 182.952 79.187 182.657 78.9313C180.104 76.7172 178.599 73.3627 178.891 69.7359C179.379 63.6805 184.684 59.167 190.739 59.6545ZM190.091 67.6949C188.477 67.565 187.062 68.7688 186.932 70.3835C186.802 71.9981 188.006 73.4128 189.62 73.5431C191.235 73.6732 192.65 72.4693 192.78 70.8545C192.91 69.2397 191.706 67.8249 190.091 67.6949Z" fill="#2E2D2B"/>
<path d="M66.1204 95.7367C67.3232 93.0681 69.8643 91.2722 72.7848 91.0754C89.7786 89.9299 149.088 86.3961 190.565 89.7369C232.041 93.0776 290.021 106.059 306.612 109.909C309.463 110.571 311.684 112.75 312.445 115.577L313.556 119.708L64.3626 99.6366L66.1204 95.7367Z" fill="#6D2B0F"/>
<circle cx="109.5" cy="110.5" r="28.5" fill="white"/>
<circle cx="148.5" cy="129.5" r="28.5" fill="white"/>
<circle cx="191.5" cy="124.5" r="28.5" fill="white"/>
<path d="M113 120C113 116.717 112.353 113.466 111.097 110.433C109.841 107.4 107.999 104.644 105.678 102.322C103.356 100.001 100.6 98.1594 97.5671 96.903C94.5339 95.6466 91.283 95 88 95C84.717 95 81.4661 95.6466 78.4329 96.903C75.3998 98.1594 72.6438 100.001 70.3223 102.322C68.0009 104.644 66.1594 107.4 64.903 110.433C63.6466 113.466 63 116.717 63 120L88 120H113Z" fill="white"/>
<circle cx="270.5" cy="133.5" r="28.5" fill="white"/>
<path d="M63 120H313L303 193H73L63 120Z" fill="#FF6F31"/>
</g>
<defs>
<clipPath id="clip0_3295_6623">
<rect width="375" height="180" fill="white"/>
</clipPath>
</defs>
</svg>
