<svg width="32" height="32" viewBox="0 0 32 32" fill="none" xmlns="http://www.w3.org/2000/svg">
<g clip-path="url(#clip0_4112_4066)">
<circle cx="16.0001" cy="16.0003" r="14.6667" fill="#FF6F31" stroke="white" stroke-width="2.66667"/>
<path d="M17.634 8.5C16.8425 10.0416 17.1173 12.0499 18.3586 13.2666C18.8918 13.7916 19.525 14.1504 20.0832 14.6504C20.2998 14.8671 20.5332 15.084 20.7248 15.334C20.735 15.3485 21.1934 16.0047 21.3664 16.3838L21.4748 16.6006C22.2578 18.5005 21.725 20.7173 20.2004 22.1006C18.834 23.3339 16.9258 23.6586 15.1428 23.4336C13.4681 23.2253 11.9098 22.1917 11.01 20.75C10.7601 20.3084 10.5348 19.8085 10.4182 19.3086C10.2766 18.892 10.2269 18.4752 10.177 18.0586C10.0687 16.2503 10.8267 14.3336 12.218 13.2002C11.5849 14.5668 11.7347 16.2751 12.676 17.4668C12.7058 17.5208 12.7459 17.5688 12.7932 17.6084C12.9514 17.7417 13.1514 17.7922 13.343 17.709C13.5096 17.6423 13.6349 17.4753 13.635 17.292C13.635 17.1837 13.6009 17.0999 13.5676 17.0166C12.5513 14.3916 13.401 11.3329 15.5588 9.59961C16.1504 9.1246 16.8425 8.69167 17.634 8.5ZM17.5139 16.3994C16.1277 17.5963 14.9787 19.4519 14.9787 20.6025C14.9789 21.753 15.9122 22.6855 17.0627 22.6855C18.2132 22.6855 19.1066 21.8791 19.1066 20.7285C19.1065 18.7771 17.5139 19.234 17.5139 16.3994Z" fill="#FAFAF9"/>
</g>
<defs>
<clipPath id="clip0_4112_4066">
<rect width="32" height="32" rx="16" fill="white"/>
</clipPath>
</defs>
</svg>
