<svg width="85" height="97" viewBox="0 0 85 97" fill="none" xmlns="http://www.w3.org/2000/svg">
<g filter="url(#filter0_d_4039_6234)">
<g clip-path="url(#clip0_4039_6234)">
<circle cx="37.0001" cy="46.0003" r="14.6667" fill="#FF6F31" stroke="white" stroke-width="2.66667"/>
<path d="M38.6335 38.5C37.8421 40.0417 38.1177 42.0499 39.3591 43.2666C39.8923 43.7916 40.5255 44.1504 41.0837 44.6504C41.3002 44.867 41.5337 45.0841 41.7253 45.334C41.739 45.3535 42.1946 46.0062 42.3669 46.3838L42.4753 46.6006C43.2582 48.5005 42.7245 50.7173 41.1999 52.1006C39.8335 53.3338 37.9252 53.6586 36.1423 53.4336C34.4677 53.2251 32.9102 52.1916 32.0104 50.75C31.7605 50.3083 31.5353 49.8086 31.4186 49.3086C31.277 48.8919 31.2265 48.4753 31.1765 48.0586C31.0682 46.2502 31.8271 44.3336 33.2185 43.2002C32.5852 44.5669 32.735 46.2751 33.6765 47.4668C33.7062 47.5207 33.7455 47.5688 33.7927 47.6084C33.951 47.7417 34.1518 47.7923 34.3435 47.709C34.5099 47.6423 34.6344 47.4752 34.6345 47.292C34.6345 47.1837 34.6014 47.0999 34.5681 47.0166C33.5517 44.3916 34.4014 41.3329 36.5593 39.5996C37.1507 39.1247 37.8422 38.6917 38.6335 38.5ZM38.5144 46.3994C37.1282 47.5963 35.9792 49.4519 35.9792 50.6025C35.9794 51.7528 36.9119 52.6853 38.0622 52.6855C39.2128 52.6855 40.1061 51.8791 40.1061 50.7285C40.106 48.7771 38.5144 49.234 38.5144 46.3994Z" fill="#FAFAF9"/>
</g>
</g>
<defs>
<filter id="filter0_d_4039_6234" x="-11" y="0.666667" width="96" height="96" filterUnits="userSpaceOnUse" color-interpolation-filters="sRGB">
<feFlood flood-opacity="0" result="BackgroundImageFix"/>
<feColorMatrix in="SourceAlpha" type="matrix" values="0 0 0 0 0 0 0 0 0 0 0 0 0 0 0 0 0 0 127 0" result="hardAlpha"/>
<feOffset dy="2.66667"/>
<feGaussianBlur stdDeviation="16"/>
<feComposite in2="hardAlpha" operator="out"/>
<feColorMatrix type="matrix" values="0 0 0 0 0.180392 0 0 0 0 0.176471 0 0 0 0 0.168627 0 0 0 0.05 0"/>
<feBlend mode="normal" in2="BackgroundImageFix" result="effect1_dropShadow_4039_6234"/>
<feBlend mode="normal" in="SourceGraphic" in2="effect1_dropShadow_4039_6234" result="shape"/>
</filter>
<clipPath id="clip0_4039_6234">
<rect x="21" y="30" width="32" height="32" rx="16" fill="white"/>
</clipPath>
</defs>
</svg>
