<svg width="24" height="24" viewBox="0 0 24 24" fill="none" xmlns="http://www.w3.org/2000/svg">
<g id="ic:baseline-edit">
<path id="Vector" d="M5 14.0837V17H7.91627L16.5173 8.39895L13.6011 5.48268L5 14.0837ZM18.7726 6.1437C18.8447 6.07175 18.9019 5.98629 18.9409 5.89222C18.9799 5.79814 19 5.69729 19 5.59544C19 5.49359 18.9799 5.39274 18.9409 5.29866C18.9019 5.20458 18.8447 5.11912 18.7726 5.04718L16.9528 3.22743C16.8809 3.15533 16.7954 3.09814 16.7013 3.05911C16.6073 3.02009 16.5064 3 16.4046 3C16.3027 3 16.2019 3.02009 16.1078 3.05911C16.0137 3.09814 15.9282 3.15533 15.8563 3.22743L14.4332 4.65057L17.3494 7.56684L18.7726 6.1437Z" fill="#D6D5D2"/>
<path id="Vector 14" d="M4 20H20" stroke="#D6D5D2" stroke-width="2" stroke-linecap="round" stroke-linejoin="round"/>
</g>
</svg>
