<svg width="32" height="32" viewBox="0 0 32 32" fill="none" xmlns="http://www.w3.org/2000/svg">
<g clip-path="url(#clip0_4112_4056)">
<circle cx="16.0001" cy="16.0003" r="14.6667" fill="#FF6F31" stroke="white" stroke-width="2.66667"/>
<path d="M10.1665 17.7364V20.1667H12.5967L19.7643 12.9991L17.334 10.5689L10.1665 17.7364ZM21.6436 11.1197C21.7037 11.0598 21.7514 10.9886 21.7839 10.9102C21.8164 10.8318 21.8332 10.7477 21.8332 10.6629C21.8332 10.578 21.8164 10.4939 21.7839 10.4155C21.7514 10.3372 21.7037 10.2659 21.6436 10.206L20.1272 8.68952C20.0672 8.62944 19.996 8.58178 19.9176 8.54926C19.8392 8.51674 19.7552 8.5 19.6703 8.5C19.5854 8.5 19.5014 8.51674 19.423 8.54926C19.3446 8.58178 19.2734 8.62944 19.2134 8.68952L18.0275 9.87547L20.4577 12.3057L21.6436 11.1197Z" fill="white"/>
<path d="M9.3335 22.666H22.6668" stroke="white" stroke-width="1.66667" stroke-linecap="round" stroke-linejoin="round"/>
</g>
<defs>
<clipPath id="clip0_4112_4056">
<rect width="32" height="32" rx="16" fill="white"/>
</clipPath>
</defs>
</svg>
