<svg width="85" height="97" viewBox="0 0 85 97" fill="none" xmlns="http://www.w3.org/2000/svg">
<g filter="url(#filter0_d_4039_6136)">
<g clip-path="url(#clip0_4039_6136)">
<circle cx="37.0001" cy="46.0003" r="14.6667" fill="#FF6F31" stroke="white" stroke-width="2.66667"/>
<path d="M31.1665 47.7364V50.1667H33.5967L40.7643 42.9991L38.334 40.5689L31.1665 47.7364ZM42.6436 41.1197C42.7037 41.0598 42.7514 40.9886 42.7839 40.9102C42.8164 40.8318 42.8332 40.7477 42.8332 40.6629C42.8332 40.578 42.8164 40.4939 42.7839 40.4155C42.7514 40.3372 42.7037 40.2659 42.6436 40.206L41.1272 38.6895C41.0672 38.6294 40.996 38.5818 40.9176 38.5493C40.8392 38.5167 40.7552 38.5 40.6703 38.5C40.5854 38.5 40.5014 38.5167 40.423 38.5493C40.3446 38.5818 40.2734 38.6294 40.2134 38.6895L39.0275 39.8755L41.4577 42.3057L42.6436 41.1197Z" fill="white"/>
<path d="M30.3335 52.666H43.6668" stroke="white" stroke-width="1.66667" stroke-linecap="round" stroke-linejoin="round"/>
</g>
</g>
<defs>
<filter id="filter0_d_4039_6136" x="-11" y="0.666667" width="96" height="96" filterUnits="userSpaceOnUse" color-interpolation-filters="sRGB">
<feFlood flood-opacity="0" result="BackgroundImageFix"/>
<feColorMatrix in="SourceAlpha" type="matrix" values="0 0 0 0 0 0 0 0 0 0 0 0 0 0 0 0 0 0 127 0" result="hardAlpha"/>
<feOffset dy="2.66667"/>
<feGaussianBlur stdDeviation="16"/>
<feComposite in2="hardAlpha" operator="out"/>
<feColorMatrix type="matrix" values="0 0 0 0 0.180392 0 0 0 0 0.176471 0 0 0 0 0.168627 0 0 0 0.05 0"/>
<feBlend mode="normal" in2="BackgroundImageFix" result="effect1_dropShadow_4039_6136"/>
<feBlend mode="normal" in="SourceGraphic" in2="effect1_dropShadow_4039_6136" result="shape"/>
</filter>
<clipPath id="clip0_4039_6136">
<rect x="21" y="30" width="32" height="32" rx="16" fill="white"/>
</clipPath>
</defs>
</svg>
