<svg width="24" height="24" viewBox="0 0 24 24" fill="none" xmlns="http://www.w3.org/2000/svg">
<path d="M3 7C3 5.89543 3.89543 5 5 5H16C17.1046 5 18 5.89543 18 7V16.5C18 17.5 16 20 10.5 20C5 20 3 17.5 3 16.5V7Z" fill="#FFC5AD"/>
<path fill-rule="evenodd" clip-rule="evenodd" d="M19 16C21.2091 16 23 14.2091 23 12C23 9.79086 21.2091 8 19 8C16.7909 8 15 9.79086 15 12C15 14.2091 16.7909 16 19 16ZM19 13C19.5523 13 20 12.5523 20 12C20 11.4477 19.5523 11 19 11C18.4477 11 18 11.4477 18 12C18 12.5523 18.4477 13 19 13Z" fill="#FF6F31"/>
</svg>
