<svg width="24" height="24" viewBox="0 0 24 24" fill="none" xmlns="http://www.w3.org/2000/svg">
<g id="mdi:art">
<path id="Vector" d="M17.5 11.5C17.1022 11.5 16.7206 11.342 16.4393 11.0607C16.158 10.7794 16 10.3978 16 10C16 9.60218 16.158 9.22064 16.4393 8.93934C16.7206 8.65804 17.1022 8.5 17.5 8.5C17.8978 8.5 18.2794 8.65804 18.5607 8.93934C18.842 9.22064 19 9.60218 19 10C19 10.3978 18.842 10.7794 18.5607 11.0607C18.2794 11.342 17.8978 11.5 17.5 11.5ZM14.5 7.5C14.1022 7.5 13.7206 7.34196 13.4393 7.06066C13.158 6.77936 13 6.39782 13 6C13 5.60218 13.158 5.22064 13.4393 4.93934C13.7206 4.65804 14.1022 4.5 14.5 4.5C14.8978 4.5 15.2794 4.65804 15.5607 4.93934C15.842 5.22064 16 5.60218 16 6C16 6.39782 15.842 6.77936 15.5607 7.06066C15.2794 7.34196 14.8978 7.5 14.5 7.5ZM9.5 7.5C9.10218 7.5 8.72064 7.34196 8.43934 7.06066C8.15804 6.77936 8 6.39782 8 6C8 5.60218 8.15804 5.22064 8.43934 4.93934C8.72064 4.65804 9.10218 4.5 9.5 4.5C9.89782 4.5 10.2794 4.65804 10.5607 4.93934C10.842 5.22064 11 5.60218 11 6C11 6.39782 10.842 6.77936 10.5607 7.06066C10.2794 7.34196 9.89782 7.5 9.5 7.5ZM6.5 11.5C6.10218 11.5 5.72064 11.342 5.43934 11.0607C5.15804 10.7794 5 10.3978 5 10C5 9.60218 5.15804 9.22064 5.43934 8.93934C5.72064 8.65804 6.10218 8.5 6.5 8.5C6.89782 8.5 7.27936 8.65804 7.56066 8.93934C7.84196 9.22064 8 9.60218 8 10C8 10.3978 7.84196 10.7794 7.56066 11.0607C7.27936 11.342 6.89782 11.5 6.5 11.5ZM12 2.5C9.61305 2.5 7.32387 3.44821 5.63604 5.13604C3.94821 6.82387 3 9.11305 3 11.5C3 13.8869 3.94821 16.1761 5.63604 17.864C7.32387 19.5518 9.61305 20.5 12 20.5C12.3978 20.5 12.7794 20.342 13.0607 20.0607C13.342 19.7794 13.5 19.3978 13.5 19C13.5 18.61 13.35 18.26 13.11 18C12.88 17.73 12.73 17.38 12.73 17C12.73 16.6022 12.888 16.2206 13.1693 15.9393C13.4506 15.658 13.8322 15.5 14.23 15.5H16C17.3261 15.5 18.5979 14.9732 19.5355 14.0355C20.4732 13.0979 21 11.8261 21 10.5C21 6.08 16.97 2.5 12 2.5Z" fill="#FF6F31"/>
<circle id="Ellipse 53" cx="6.50391" cy="10" r="1.5" fill="#FFC5AD"/>
<circle id="Ellipse 54" cx="9.50391" cy="5.99854" r="1.5" fill="#FFC5AD"/>
<circle id="Ellipse 55" cx="14.5039" cy="5.99854" r="1.5" fill="#FFC5AD"/>
<circle id="Ellipse 56" cx="17.5039" cy="10" r="1.5" fill="#FFC5AD"/>
</g>
</svg>
