<svg width="24" height="24" viewBox="0 0 24 24" fill="none" xmlns="http://www.w3.org/2000/svg">
<g id="Icon_Community">
<path id="Rectangle 169" d="M21 13.579C21 12.6405 20.3474 11.8282 19.431 11.626L5.43098 8.53647C4.18273 8.261 3 9.21119 3 10.4895V19C3 20.1046 3.89543 21 5 21H19C20.1046 21 21 20.1046 21 19V13.579Z" fill="#FF6F31"/>
<path id="Rectangle 168" d="M3 9.73607C3 8.97852 3.428 8.286 4.10557 7.94721L11.1056 4.44721C12.4354 3.78231 14 4.7493 14 6.23607V21H5C3.89543 21 3 20.1046 3 19V9.73607Z" fill="#FFC5AD"/>
<rect id="Rectangle 170" x="5" y="11" width="2" height="2" fill="#FF6F31"/>
<rect id="Rectangle 172" x="5" y="15" width="2" height="2" fill="#FF6F31"/>
<rect id="Rectangle 174" x="10" y="15" width="2" height="2" fill="#FF6F31"/>
<rect id="Rectangle 171" x="10" y="11" width="2" height="2" fill="#FF6F31"/>
</g>
</svg>
