<svg width="24" height="24" viewBox="0 0 24 24" fill="none" xmlns="http://www.w3.org/2000/svg">
<g id="Type_Place=Icon_Education/Support, Type_Review=None, Type_Company=None, IsSmall=False">
<path id="Rectangle 254" d="M5.54492 15H19.5078V16.5284C19.5078 16.8598 19.2392 17.1284 18.9078 17.1284H5.54492V15Z" fill="#FF6F31"/>
<path id="Vector" d="M5.75 3C5.5925 3 5.4575 3.02125 5.3225 3.06375C4.445 3.23375 3.7475 3.8925 3.5675 4.72125C3.5 4.84875 3.5 4.97625 3.5 5.125V16.8125C3.5 18.5763 5.0075 20 6.875 20H20.5V17.875H6.875C6.245 17.875 5.75 17.4075 5.75 16.8125C5.75 16.2175 6.245 15.75 6.875 15.75H20.5V4.0625C20.5 3.4675 20.005 3 19.375 3H17V9.375L14.75 7.25L12.5 9.375V3H5.75Z" fill="#FFC5AD"/>
<path id="Rectangle 253" d="M12.1016 3.12881C12.1016 2.79744 12.3702 2.52881 12.7016 2.52881H16.8873C17.2187 2.52881 17.4873 2.79744 17.4873 3.12881V9.76152C17.4873 10.2905 16.8525 10.5606 16.4713 10.1939L15.2104 8.9808C14.9781 8.75731 14.6107 8.75731 14.3784 8.9808L13.1176 10.1939C12.7364 10.5607 12.1016 10.2905 12.1016 9.76152V3.12881Z" fill="#FF6F31"/>
</g>
</svg>
