<svg width="24" height="24" viewBox="0 0 24 24" fill="none" xmlns="http://www.w3.org/2000/svg">
<g id="Type_Place=Icon_LivingService, Type_Review=None, Type_Company=None, IsSmall=False">
<path id="Rectangle 252" d="M17.7618 10.1449C17.7618 10.1449 15.8739 12.1113 13.9191 9.96771C11.9644 7.82412 13.7764 6.41886 13.7764 6.41886L14.6039 5.38917L16.3096 3.01178C16.4524 2.81273 16.739 2.78765 16.9142 2.95887L21.0606 7.01104C21.2326 7.17907 21.2185 7.45972 21.0306 7.60971L18.8625 9.3407L17.7618 10.1449Z" fill="#FF6F31"/>
<rect id="Rectangle 245" x="1.65723" y="9.51465" width="2.47317" height="4" rx="1" transform="rotate(-47.0813 1.65723 9.51465)" fill="#FFC5AD"/>
<path id="Rectangle 247" d="M4.46025 8.08897C4.05543 7.71255 4.03282 7.07909 4.40976 6.67475L5.78487 5.19972C6.48537 4.35877 8.36293 3.13542 9.75557 3.17729C10.3313 3.19459 10.4083 3.87162 10.0143 4.29169L8.94943 5.42693C8.70274 5.68992 8.61674 6.06535 8.72434 6.40949L8.90392 6.98383C9.01132 7.32732 8.92587 7.70203 8.68016 7.96499L7.33735 9.40208C6.96094 9.80492 6.32948 9.82711 5.92573 9.45167L4.46025 8.08897Z" fill="#FFC5AD"/>
<rect id="Rectangle 246" x="3.91309" y="8.51367" width="0.843832" height="2.0622" transform="rotate(-47.0813 3.91309 8.51367)" fill="#FFC5AD"/>
<path id="Rectangle 248" d="M7.13482 9.0564L8.42207 7.68228L20.6957 18.4266L18.6536 20.6065L7.13482 9.0564Z" fill="#FFC5AD"/>
<path id="Rectangle 250" d="M15.5664 9.66846L14.2188 8.3961L3.44784 19.7742C3.09774 20.1441 3.11273 20.7274 3.48136 21.0788C3.85172 21.4318 4.43839 21.4168 4.79024 21.0454L15.5664 9.66846Z" fill="#FF6F31"/>
<path id="Rectangle 249" d="M13.1599 15.9463C12.8558 15.6447 12.8431 15.1571 13.1313 14.8401L14.5304 13.3009C14.8244 12.9775 15.3236 12.9499 15.6514 13.239L21.2023 18.1324C21.6255 18.5055 21.6565 19.1545 21.2708 19.5662L19.8264 21.1082C19.4412 21.5194 18.7925 21.5313 18.3925 21.1346L13.1599 15.9463Z" fill="#FF6F31"/>
<rect id="Rectangle 251" x="17.6445" y="10.9131" width="6.34133" height="1.65706" rx="0.828529" transform="rotate(-136.252 17.6445 10.9131)" fill="#FFC5AD"/>
<path id="Vector 55" d="M18.7907 5.09521L17.5752 6.31115" stroke="#FFC5AD" stroke-width="0.6" stroke-linecap="round"/>
<path id="Vector 56" d="M20.0656 6.31132L18.6686 7.31354" stroke="#FFC5AD" stroke-width="0.6" stroke-linecap="round"/>
<path id="Vector 57" d="M16.57 5.30757L17.5233 3.87674" stroke="#FFC5AD" stroke-width="0.6" stroke-linecap="round"/>
</g>
</svg>
