<svg width="24" height="24" viewBox="0 0 24 24" fill="none" xmlns="http://www.w3.org/2000/svg">
<g id="Type_Place=Icon_Manfc/Trnspt, Type_Review=None, Type_Company=None, IsSmall=False">
<path id="Vector" d="M9.24967 17.1245C9.24967 17.6107 9.05652 18.0771 8.7127 18.4209C8.36889 18.7647 7.90257 18.9578 7.41634 18.9578C6.93011 18.9578 6.4638 18.7647 6.11998 18.4209C5.77616 18.0771 5.58301 17.6107 5.58301 17.1245M19.333 17.1245C19.333 17.6107 19.1399 18.0771 18.796 18.4209C18.4522 18.7647 17.9859 18.9578 17.4997 18.9578C17.0134 18.9578 16.5471 18.7647 16.2033 18.4209C15.8595 18.0771 15.6663 17.6107 15.6663 17.1245" stroke="#FF6F31" stroke-width="2" stroke-linecap="round" stroke-linejoin="round"/>
<path id="Subtract" d="M10 10.124V17.125H8.25488C8.25488 16.6638 7.88108 16.29 7.41992 16.29C6.95878 16.2901 6.58496 16.6639 6.58496 17.125H3C2.44788 17.125 2.00026 16.6771 2 16.125V13.793C2.0001 13.5141 2.11646 13.2478 2.32129 13.0586L5.21289 10.3896C5.3975 10.2193 5.63942 10.1241 5.89062 10.124H10Z" fill="#FF6F31"/>
<path id="Subtract_2" d="M21 4.125C21.2652 4.125 21.5195 4.23043 21.707 4.41797C21.8946 4.60551 22 4.85978 22 5.125V16.125C22 16.3902 21.8946 16.6445 21.707 16.832C21.5195 17.0196 21.2652 17.125 21 17.125H18.333C18.333 16.6633 17.9587 16.2891 17.4971 16.2891C17.0354 16.2891 16.6611 16.6633 16.6611 17.125H10C9.73478 17.125 9.48051 17.0196 9.29297 16.832C9.10543 16.6445 9 16.3902 9 16.125V5.125C9 4.85978 9.10543 4.60551 9.29297 4.41797C9.48051 4.23043 9.73478 4.125 10 4.125H21Z" fill="#FFC5AD"/>
<path id="Vector_2" d="M4.26282 12.7838C3.9954 13.0308 4.17019 13.4776 4.53424 13.4776H7.73279C7.95371 13.4776 8.13279 13.2985 8.13279 13.0776V11.5671C8.13279 11.3461 7.95371 11.1671 7.73281 11.1671L6.16957 11.167C6.06896 11.167 5.97204 11.2049 5.89814 11.2732L4.26282 12.7838Z" fill="#FFC5AD"/>
</g>
</svg>
