<svg width="24" height="24" viewBox="0 0 24 24" fill="none" xmlns="http://www.w3.org/2000/svg">
<g id="Icon_Restaurent">
<g id="Group 2">
<path id="Rectangle 143" d="M18.0571 2.04962C18.3623 2.04962 18.6117 2.29336 18.6186 2.59851L18.8579 13.0819C18.8682 13.5332 18.5051 13.9047 18.0536 13.9047C17.602 13.9047 17.2388 13.5329 17.2494 13.0814L17.4955 2.59814C17.5027 2.29314 17.752 2.04962 18.0571 2.04962Z" fill="#FFC5AD"/>
<path id="Rectangle 145" d="M15.2481 2.04962C15.5533 2.04962 15.8027 2.29336 15.8097 2.59851L16.0489 13.0819C16.0592 13.5332 15.6961 13.9047 15.2447 13.9047C14.793 13.9047 14.4299 13.5329 14.4405 13.0814L14.6866 2.59814C14.6937 2.29314 14.943 2.04962 15.2481 2.04962Z" fill="#FFC5AD"/>
<path id="Rectangle 144" d="M17.1962 13.8677C17.2123 13.4067 17.5906 13.0413 18.0519 13.0413C18.5126 13.0413 18.8907 13.4057 18.9076 13.866L19.1622 20.7946C19.185 21.4162 18.6809 21.9326 18.0588 21.9326C17.4376 21.9326 16.9338 21.4176 16.9554 20.7968L17.1962 13.8677Z" fill="#FF6F31"/>
<path id="Rectangle 146" d="M14.3867 13.8677C14.4027 13.4067 14.7811 13.0413 15.2424 13.0413C15.703 13.0413 16.0811 13.4057 16.098 13.866L16.3526 20.7946C16.3754 21.4162 15.8713 21.9326 15.2492 21.9326C14.628 21.9326 14.1242 21.4176 14.1458 20.7968L14.3867 13.8677Z" fill="#FF6F31"/>
<path id="Union" fill-rule="evenodd" clip-rule="evenodd" d="M5.2951 5.01005C5.55577 3.38609 6.95708 2.19177 8.60182 2.19177C10.2466 2.19177 11.6479 3.3861 11.9085 5.01005L12.4076 8.11933V9.10725C12.4076 11.2897 10.7037 13.059 8.60182 13.059C6.49993 13.059 4.79602 11.2897 4.79602 9.10725V8.11933L5.2951 5.01005Z" fill="#FFC5AD"/>
<path id="Rectangle 135" d="M6.91787 12.9884C7.00608 12.4591 7.46403 12.0712 8.00063 12.0712H9.43394C9.97053 12.0712 10.4285 12.4591 10.5167 12.9884L11.7973 20.6723C11.9089 21.3413 11.3929 21.9504 10.7146 21.9504H6.71998C6.04167 21.9504 5.52571 21.3413 5.63722 20.6723L6.91787 12.9884Z" fill="#FF6F31"/>
</g>
</g>
</svg>
