<svg width="25" height="24" viewBox="0 0 25 24" fill="none" xmlns="http://www.w3.org/2000/svg">
<g id="Icon_Profile">
<path id="Vector" fill-rule="evenodd" clip-rule="evenodd" d="M12.25 2C13.5632 1.99999 14.8636 2.25865 16.0768 2.76119C17.2901 3.26373 18.3925 4.00033 19.3211 4.92891C20.2497 5.8575 20.9863 6.95989 21.4888 8.17315C21.9914 9.3864 22.25 10.6868 22.25 12C22.25 17.5228 17.7728 22 12.25 22C6.72717 22 2.25 17.5228 2.25 12C2.25 6.47717 6.72717 2 12.25 2ZM13.25 13H11.25C8.7743 13 6.64884 14.4994 5.73211 16.6398C7.18261 18.6737 9.56142 20 12.25 20C14.9385 20 17.3174 18.6737 18.7679 16.6396C17.8512 14.4994 15.7257 13 13.25 13ZM12.25 5C10.5931 5 9.24998 6.34316 9.24998 8C9.24998 9.65684 10.5931 11 12.25 11C13.9068 11 15.25 9.65684 15.25 8C15.25 6.34316 13.9069 5 12.25 5Z" fill="#D6D5D2"/>
</g>
</svg>
