<svg width="24" height="24" viewBox="0 0 24 24" fill="none" xmlns="http://www.w3.org/2000/svg">
<g id="mage:location">
<g id="Group">
<path id="Vector" d="M17.4811 12.0094H21M21 12.0094C21 14.3965 20.0523 16.6852 18.3644 18.3732C16.6765 20.0611 14.3871 21.0094 12 21.0094M21 12.0094C21 9.62229 20.0523 7.33234 18.3644 5.6444C16.6765 3.95646 14.3871 3.0094 12 3.0094M12 6.53977V3.0094M12 3.0094C9.61305 3.0094 7.32387 3.95639 5.63604 5.64422C3.94821 7.33205 3 9.62123 3 12.0082C3 14.3951 3.94821 16.6843 5.63604 18.3721C7.32387 20.06 9.61305 21.0094 12 21.0094M6.51889 12.0094H3M12 17.502V21.0094" stroke="#827F7A" stroke-width="1.6" stroke-miterlimit="10" stroke-linecap="round"/>
<path id="Vector_2" d="M11.9942 12.7941C12.2064 12.7941 12.4098 12.7098 12.5599 12.5598C12.7099 12.4097 12.7942 12.2063 12.7942 11.9941C12.7942 11.7819 12.7099 11.5784 12.5599 11.4284C12.4098 11.2784 12.2064 11.1941 11.9942 11.1941C11.782 11.1941 11.5785 11.2784 11.4285 11.4284C11.2785 11.5784 11.1942 11.7819 11.1942 11.9941C11.1942 12.2063 11.2785 12.4097 11.4285 12.5598C11.5785 12.7098 11.782 12.7941 11.9942 12.7941Z" stroke="#827F7A" stroke-width="1.6" stroke-miterlimit="10" stroke-linecap="round"/>
</g>
</g>
</svg>
