<svg width="180" height="180" viewBox="0 0 180 180" fill="none" xmlns="http://www.w3.org/2000/svg">
<g id="Illustration_Search">
<g id="Group 10">
<path id="Rectangle 176" d="M45.2106 59.4194L67.1318 70.5V125C67.1318 125.552 66.6841 126 66.1318 126L35.1318 126C34.5796 126 34.1318 125.552 34.1318 125L34.1318 71.7131L45.2106 59.4194Z" fill="#EBEAE9"/>
<g id="Group 5">
<path id="Rectangle 179" d="M42.0099 60.7346C41.3413 60.1171 41.7782 59 42.6884 59H56.644C56.8962 59 57.1391 59.0953 57.324 59.2668L70.263 71.2668C70.9296 71.885 70.4922 73 69.583 73H55.6809C55.4294 73 55.1871 72.9052 55.0024 72.7346L42.0099 60.7346Z" fill="#C2BFBC"/>
<path id="Vector 17" d="M43.0614 60.9919L33.2141 71.3299" stroke="#C2BFBC" stroke-width="4" stroke-linecap="round"/>
</g>
<rect id="Rectangle 180" x="42.1318" y="72" width="4" height="4" fill="#C2BFBC"/>
</g>
<g id="Group 9">
<path id="Rectangle 176_2" d="M43.3014 80L16.0659 94.5V125C16.0659 125.552 16.5136 126 17.0659 126L56.0659 126C56.6182 126 57.0659 125.552 57.0659 125V94.5L43.3014 80Z" fill="#EBEAE9"/>
<g id="Group 5_2">
<path id="Rectangle 179_2" d="M47.1775 81.736C47.8483 81.1193 47.412 79.9999 46.5007 79.9999H28.3264C28.0749 79.9999 27.8327 80.0946 27.648 80.2652L11.9445 94.7653C11.2757 95.3828 11.7126 96.5 12.6229 96.5H30.7286C30.9793 96.5 31.2208 96.4058 31.4054 96.2362L47.1775 81.736Z" fill="#C2BFBC"/>
<path id="Vector 17_2" d="M46.8873 81.9974L58.7129 94.4124" stroke="#C2BFBC" stroke-width="4" stroke-linecap="round"/>
</g>
<rect id="Rectangle 180_2" width="4" height="4" transform="matrix(-1 0 0 1 48.0659 95)" fill="#C2BFBC"/>
</g>
<g id="Group 7">
<path id="Rectangle 176_3" d="M19.1447 104L41.0659 115.081V125C41.0659 125.552 40.6182 126 40.0659 126L9.06592 126C8.51363 126 8.06592 125.552 8.06592 125V116.294L19.1447 104Z" fill="#EBEAE9"/>
<g id="Group 5_3">
<path id="Rectangle 179_3" d="M15.944 103.735C15.2754 103.117 15.7123 102 16.6225 102H30.5781C30.8303 102 31.0732 102.095 31.2581 102.267L44.1971 114.267C44.8637 114.885 44.4262 116 43.5171 116H29.615C29.3635 116 29.1212 115.905 28.9365 115.735L15.944 103.735Z" fill="#C2BFBC"/>
<path id="Vector 17_3" d="M16.9954 103.992L7.14817 114.33" stroke="#C2BFBC" stroke-width="4" stroke-linecap="round"/>
</g>
<rect id="Rectangle 180_3" x="16.0659" y="116" width="4" height="4" fill="#C2BFBC"/>
</g>
<g id="Group 8">
<path id="Rectangle 176_4" d="M78.7175 98.5L51.3159 112.351V125C51.3159 125.552 51.7636 126 52.3159 126L91.5659 126C92.1182 126 92.5659 125.552 92.5659 125V113.867L78.7175 98.5Z" fill="#EBEAE9"/>
<g id="Group 5_4">
<path id="Rectangle 179_4" d="M83.1878 97.7346C83.8565 97.1171 83.4195 96 82.5094 96H64.3277C64.0755 96 63.8326 96.0953 63.6476 96.2668L46.9348 111.767C46.2681 112.385 46.7056 113.5 47.6148 113.5H65.7274C65.9789 113.5 66.2211 113.405 66.4059 113.235L83.1878 97.7346Z" fill="#C2BFBC"/>
<path id="Vector 17_4" d="M81.4039 98.4899L93.713 111.412" stroke="#C2BFBC" stroke-width="4" stroke-linecap="round"/>
</g>
<rect id="Rectangle 180_4" width="4" height="4" transform="matrix(-1 0 0 1 81.0659 116)" fill="#C2BFBC"/>
</g>
<circle id="Ellipse 46" cx="98.0659" cy="74" r="38" fill="white"/>
<path id="Vector" d="M99.8347 42.795C99.4568 40.8799 98.4257 39.1555 96.9176 37.9162C95.4095 36.6768 93.5179 35.9996 91.5659 36C88.3147 36 85.4909 37.845 84.0847 40.545C82.4312 40.7237 80.9021 41.5071 79.7911 42.7447C78.6801 43.9824 78.0657 45.5869 78.0659 47.25C78.0659 50.9738 81.0922 54 84.8159 54H99.4409C102.546 54 105.066 51.48 105.066 48.375C105.066 45.405 102.76 42.9975 99.8347 42.795Z" fill="#FFC5AD"/>
<g id="Group 6">
<path id="Rectangle 176_5" d="M81.2821 70.2063L111.39 85.5373V97.2878C111.39 99.142 109.887 100.645 108.033 100.645L69.4233 100.645C67.5691 100.645 66.0659 99.142 66.0659 97.2877V87.2157L81.2821 70.2063Z" fill="#FFC5AD"/>
<g id="Group 5_5">
<path id="Rectangle 179_5" d="M80.3728 72.8339C78.2154 70.7318 79.7036 67.0719 82.7158 67.0719H96.1463C97.024 67.0719 97.8669 67.4156 98.4942 68.0294L112.22 81.4588C114.371 83.5629 112.881 87.2159 109.872 87.2159H96.4985C95.6232 87.2159 94.7825 86.874 94.1556 86.2632L80.3728 72.8339Z" fill="#FF6F31"/>
<path id="Vector 17_5" d="M82.3543 69.8367L67.2463 84.9447" stroke="#FF6F31" stroke-width="5.37173" stroke-linecap="round"/>
</g>
<rect id="Rectangle 180_5" x="77.8167" y="90.5734" width="6.71467" height="6.71467" fill="#FF6F31"/>
<path id="Rectangle 234" d="M92.9246 60.3573C92.9246 58.5031 94.4277 57 96.2819 57H102.997C104.851 57 106.354 58.5031 106.354 60.3573V77.144H92.9246V60.3573Z" fill="#FF6F31"/>
</g>
<circle id="Ellipse 45" cx="98.0659" cy="74" r="38" stroke="#FF6F31" stroke-width="8"/>
<path id="Vector 42" d="M125.066 100.5L145.566 121" stroke="#FF6F31" stroke-width="8" stroke-linecap="round"/>
<path id="Rectangle 239" d="M134.78 118.549C134.114 117.755 134.165 116.583 134.898 115.849L139.915 110.832C140.649 110.099 141.821 110.048 142.615 110.714L171.079 134.6C171.978 135.354 172.037 136.717 171.207 137.546L161.612 147.141C160.782 147.971 159.42 147.912 158.666 147.013L134.78 118.549Z" fill="#FFC5AD"/>
</g>
</svg>
