<svg width="24" height="24" viewBox="0 0 24 24" fill="#D6D5D2" xmlns="http://www.w3.org/2000/svg">
  <g id="mingcute:link-line">
    <path id="Vector" d="M10.4838 10.4836C11.2625 9.70496 12.3108 9.25541 13.4117 9.22793C14.5126 9.20045 15.582 9.59714 16.3987 10.3359L16.554 10.4836L18.9818 12.912C19.7725 13.7041 20.2225 14.7736 20.236 15.8926C20.2495 17.0116 19.8253 18.0916 19.054 18.9025C18.2826 19.7133 17.225 20.1908 16.1066 20.2332C14.9882 20.2756 13.8975 19.8796 13.0669 19.1295L12.9124 18.9818L11.0907 17.1603C10.9367 17.0058 10.8473 16.7985 10.8407 16.5805C10.834 16.3626 10.9106 16.1502 11.0549 15.9866C11.1991 15.823 11.4002 15.7205 11.6174 15.6998C11.8345 15.6791 12.0513 15.7419 12.2239 15.8753L12.3046 15.9465L14.1263 17.7681C14.5985 18.243 15.2372 18.5153 15.9069 18.5272C16.5765 18.5391 17.2245 18.2897 17.7133 17.8319C18.2021 17.374 18.4933 16.7438 18.5252 16.0748C18.557 15.4058 18.327 14.7508 17.8838 14.2486L17.7679 14.1258L15.3402 11.6982C15.101 11.4591 14.8171 11.2693 14.5046 11.1399C14.1921 11.0104 13.8571 10.9438 13.5189 10.9438C13.1807 10.9438 12.8457 11.0104 12.5332 11.1399C12.2207 11.2693 11.9368 11.4591 11.6976 11.6982C11.5366 11.8592 11.3181 11.9496 11.0904 11.9495C10.8627 11.9494 10.6443 11.8589 10.4833 11.6978C10.3224 11.5367 10.232 11.3183 10.2321 11.0906C10.2321 10.8629 10.3227 10.6446 10.4838 10.4836ZM5.02042 5.02068C5.79917 4.24204 6.84743 3.79249 7.94836 3.76501C9.0493 3.73753 10.1187 4.13422 10.9353 4.87303L11.0907 5.02068L12.9115 6.84308C13.0655 6.99756 13.1549 7.20484 13.1615 7.42284C13.1682 7.64083 13.0916 7.85318 12.9474 8.01677C12.8031 8.18035 12.602 8.2829 12.3849 8.30358C12.1677 8.32426 11.9509 8.26153 11.7783 8.12812L11.6976 8.05687L9.87682 6.23619C9.40377 5.76626 8.76689 5.49811 8.10015 5.48815C7.43341 5.47819 6.7888 5.72719 6.30192 6.18278C5.81505 6.63837 5.52387 7.26502 5.48964 7.93091C5.45542 8.59679 5.68081 9.24999 6.11841 9.75309L6.23431 9.8767L8.66293 12.3051C9.1459 12.7879 9.80085 13.0591 10.4838 13.0591C11.1667 13.0591 11.8216 12.7879 12.3046 12.3051C12.3843 12.2254 12.4789 12.1621 12.5831 12.1189C12.6872 12.0757 12.7989 12.0535 12.9117 12.0535C13.0244 12.0534 13.1361 12.0756 13.2403 12.1187C13.3445 12.1618 13.4391 12.225 13.5189 12.3047C13.5987 12.3844 13.6619 12.479 13.7051 12.5832C13.7483 12.6873 13.7706 12.799 13.7706 12.9117C13.7706 13.0245 13.7485 13.1361 13.7054 13.2403C13.6622 13.3445 13.599 13.4392 13.5193 13.5189C12.7406 14.2976 11.6923 14.7471 10.5914 14.7746C9.49045 14.8021 8.42107 14.4054 7.60443 13.6666L7.44819 13.5189L5.02042 11.0905C4.21573 10.2856 3.76367 9.19411 3.76367 8.05601C3.76367 6.91792 4.21573 5.82556 5.02042 5.02068Z" fill="#D6D5D2" stroke="#D6D5D2" stroke-width="1"/>
  </g>
</svg>
