<svg width="48" height="48" viewBox="0 0 48 48" fill="none" xmlns="http://www.w3.org/2000/svg">
<g filter="url(#filter0_d_2716_3114)">
<g clip-path="url(#clip0_2716_3114)">
<circle cx="24" cy="22" r="11" fill="#FF6F31" stroke="white" stroke-width="2"/>
<path d="M23.4297 16.7462C25.0633 16.071 26.9414 16.8324 27.6246 18.447C28.0703 19.5005 27.897 20.6566 27.2691 21.5207C27.9136 21.8506 28.449 22.3974 28.7509 23.111C29.4341 24.7256 28.6636 26.5818 27.0301 27.257C25.3966 27.9322 23.5119 27.1497 22.8287 25.5351C22.8251 25.5266 22.8323 25.5438 22.8287 25.5351C22.7076 25.6049 22.5767 25.663 22.4439 25.7179C20.8103 26.3931 18.9322 25.6316 18.2491 24.017C17.5659 22.4024 18.3364 20.5462 19.9699 19.871C20.4576 19.6694 20.9671 19.596 21.4602 19.635C21.4744 18.4087 22.2123 17.2494 23.4297 16.7462ZM24.1554 21.5277C23.9096 21.4214 23.3881 21.4351 23.0765 21.6968C22.5534 22.1363 21.6808 21.9484 21.4991 21.8778C21.3174 21.8071 21.0522 21.8165 20.8316 21.9077C20.3361 22.1126 20.1024 22.6757 20.3096 23.1655C20.4178 23.4212 20.5815 23.6976 21.0039 23.7885C21.4263 23.8795 21.9604 23.8655 22.4868 23.5412C23.0132 23.2169 23.2974 23.2702 23.5513 23.3547C23.8052 23.4392 23.9968 23.6553 24.2142 24.1682C24.4315 24.6811 24.9557 25.0213 25.1915 25.133C25.4272 25.2446 25.9338 25.3174 26.1684 25.2204C26.664 25.0155 26.8978 24.4524 26.6906 23.9626C26.5823 23.7068 26.3454 23.511 26.1016 23.4217C25.7859 23.2736 25.1032 22.9844 24.8956 22.2128C24.796 21.8424 24.4013 21.6341 24.1554 21.5277ZM25.6254 18.9539C25.4181 18.4641 24.8482 18.2329 24.3527 18.4378C23.8571 18.6426 23.6234 19.2059 23.8306 19.6957C24.0379 20.1855 24.6077 20.4164 25.1032 20.2116C25.5988 20.0067 25.8326 19.4437 25.6254 18.9539Z" fill="white"/>
</g>
</g>
<defs>
<filter id="filter0_d_2716_3114" x="0" y="0" width="48" height="48" filterUnits="userSpaceOnUse" color-interpolation-filters="sRGB">
<feFlood flood-opacity="0" result="BackgroundImageFix"/>
<feColorMatrix in="SourceAlpha" type="matrix" values="0 0 0 0 0 0 0 0 0 0 0 0 0 0 0 0 0 0 127 0" result="hardAlpha"/>
<feOffset dy="2"/>
<feGaussianBlur stdDeviation="6"/>
<feComposite in2="hardAlpha" operator="out"/>
<feColorMatrix type="matrix" values="0 0 0 0 0.180392 0 0 0 0 0.176471 0 0 0 0 0.168627 0 0 0 0.05 0"/>
<feBlend mode="normal" in2="BackgroundImageFix" result="effect1_dropShadow_2716_3114"/>
<feBlend mode="normal" in="SourceGraphic" in2="effect1_dropShadow_2716_3114" result="shape"/>
</filter>
<clipPath id="clip0_2716_3114">
<rect x="12" y="10" width="24" height="24" rx="12" fill="white"/>
</clipPath>
</defs>
</svg>
