<svg width="21" height="28" viewBox="0 0 21 28" fill="none" xmlns="http://www.w3.org/2000/svg">
<g id="Location 1" clip-path="url(#clip0_2047_64)">
<g id="&#235;&#160;&#136;&#236;&#157;&#180;&#236;&#150;&#180; 1">
<path id="Vector" d="M9.03837 26.7996C9.50733 27.524 10.597 27.524 11.066 26.7996C18.666 15.8787 20.0728 14.7306 20.0728 10.6711C20.0728 5.14919 15.6039 0.679688 10.0728 0.679688C4.54181 0.679688 0.0728493 5.14919 0.0728493 10.6711C0.0728493 14.7306 1.42457 15.8787 9.03837 26.7996ZM10.0728 14.8263C7.72802 14.8263 5.90733 13.0084 5.90733 10.6711C5.90733 8.33388 7.72802 6.51601 10.0728 6.51601C12.4177 6.51601 14.2384 8.38855 14.2384 10.6711C14.2384 12.9537 12.3625 14.8263 10.0728 14.8263Z" fill="#2E2D2B"/>
</g>
</g>
<defs>
<clipPath id="clip0_2047_64">
<rect width="20" height="26.6667" fill="white" transform="translate(0.0728493 0.679688)"/>
</clipPath>
</defs>
</svg>
