<svg width="30" height="41" viewBox="0 0 30 41" fill="none" xmlns="http://www.w3.org/2000/svg">
<g clip-path="url(#clip0_2651_44)">
<path d="M13.4483 40.0959C14.1517 41.1825 15.7862 41.1825 16.4897 40.0959C27.8897 23.7145 30 21.9923 30 15.9031C30 7.62021 23.2966 0.915955 15 0.915955C6.70345 0.915955 0 7.62021 0 15.9031C0 21.9923 2.02759 23.7145 13.4483 40.0959ZM15 22.1358C11.4828 22.1358 8.75172 19.409 8.75172 15.9031C8.75172 12.3972 11.4828 9.67044 15 9.67044C18.5172 9.67044 21.2483 12.4793 21.2483 15.9031C21.2483 19.327 18.4345 22.1358 15 22.1358Z" fill="#FF6F31"/>
</g>
<defs>
<clipPath id="clip0_2651_44">
<rect width="30" height="40" fill="white" transform="translate(0 0.915955)"/>
</clipPath>
</defs>
</svg>
