<svg width="64" height="84" viewBox="0 0 64 84" fill="none" xmlns="http://www.w3.org/2000/svg">
<g filter="url(#filter0_d_2720_2334)">
<g clip-path="url(#clip0_2720_2334)">
<path d="M32 58.5L30.9395 59.5605L32 60.6211L33.0605 59.5605L32 58.5ZM32 58.5C33.0548 59.5548 33.0612 59.5608 33.0615 59.5605L33.0625 59.5596C33.0631 59.5589 33.0635 59.5576 33.0645 59.5566L33.1094 59.5117C33.1398 59.481 33.1842 59.4353 33.2412 59.377C33.3553 59.2602 33.5208 59.0893 33.7305 58.8691C34.1498 58.4288 34.7465 57.7909 35.4609 56.9932C36.8885 55.399 38.795 53.1586 40.7051 50.5801C42.6117 48.0061 44.5443 45.0655 46.0049 42.0713C47.4553 39.0978 48.5 35.9524 48.5 33C48.5 23.8873 41.1127 16.5 32 16.5C22.8873 16.5 15.5 23.8873 15.5 33C15.5 35.9524 16.5447 39.0978 17.9951 42.0713C19.4557 45.0655 21.3883 48.0061 23.2949 50.5801C25.205 53.1586 27.1115 55.399 28.5391 56.9932C29.2535 57.7909 29.8502 58.4288 30.2695 58.8691C30.4792 59.0893 30.6447 59.2602 30.7588 59.377C30.8158 59.4353 30.8602 59.481 30.8906 59.5117L30.9355 59.5566C30.9365 59.5576 30.9369 59.5589 30.9375 59.5596L30.9385 59.5605C30.9388 59.5608 30.9452 59.5548 32 58.5Z" fill="#FF6F31" stroke="white" stroke-width="3"/>
<path d="M31.1446 25.1193C33.5949 24.1064 36.4121 25.2487 37.4368 27.6705C38.1054 29.2507 37.8455 30.985 36.9037 32.281C37.8704 32.7759 38.6735 33.5961 39.1264 34.6665C40.1511 37.0883 38.9955 39.8727 36.5452 40.8855C34.0949 41.8983 31.2678 40.7246 30.2431 38.3027C30.2376 38.2898 30.2484 38.3156 30.2431 38.3027C30.0614 38.4074 29.8651 38.4945 29.6658 38.5769C27.2155 39.5897 24.3983 38.4474 23.3736 36.0255C22.3489 33.6037 23.5045 30.8193 25.9548 29.8065C26.6864 29.5041 27.4507 29.3939 28.1902 29.4524C28.2115 27.613 29.3185 25.8741 31.1446 25.1193ZM32.2331 32.2916C31.8643 32.1321 31.0821 32.1526 30.6147 32.5452C29.83 33.2044 28.5213 32.9227 28.2487 32.8166C27.9761 32.7106 27.5784 32.7248 27.2475 32.8615C26.5041 33.1688 26.1535 34.0135 26.4644 34.7483C26.6267 35.1318 26.8722 35.5463 27.5058 35.6828C28.1395 35.8192 28.9406 35.7982 29.7302 35.3118C30.5198 34.8253 30.9461 34.9054 31.327 35.032C31.7078 35.1587 31.9953 35.483 32.3212 36.2523C32.6472 37.0216 33.4335 37.532 33.7872 37.6995C34.1408 37.8669 34.9007 37.976 35.2527 37.8306C35.996 37.5233 36.3467 36.6786 36.0359 35.9439C35.8735 35.5601 35.5181 35.2665 35.1524 35.1325C34.6789 34.9104 33.6548 34.4766 33.3435 33.3192C33.194 32.7637 32.6019 32.4511 32.2331 32.2916ZM34.438 28.4308C34.1272 27.6961 33.2724 27.3494 32.529 27.6567C31.7857 27.964 31.4351 28.8088 31.746 29.5435C32.0568 30.2782 32.9115 30.6246 33.6548 30.3174C34.3981 30.0101 34.7488 29.1655 34.438 28.4308Z" fill="white"/>
</g>
</g>
<defs>
<filter id="filter0_d_2720_2334" x="-4" y="0" width="72" height="84" filterUnits="userSpaceOnUse" color-interpolation-filters="sRGB">
<feFlood flood-opacity="0" result="BackgroundImageFix"/>
<feColorMatrix in="SourceAlpha" type="matrix" values="0 0 0 0 0 0 0 0 0 0 0 0 0 0 0 0 0 0 127 0" result="hardAlpha"/>
<feOffset dy="3"/>
<feGaussianBlur stdDeviation="9"/>
<feComposite in2="hardAlpha" operator="out"/>
<feColorMatrix type="matrix" values="0 0 0 0 0.180392 0 0 0 0 0.176471 0 0 0 0 0.168627 0 0 0 0.05 0"/>
<feBlend mode="normal" in2="BackgroundImageFix" result="effect1_dropShadow_2720_2334"/>
<feBlend mode="normal" in="SourceGraphic" in2="effect1_dropShadow_2720_2334" result="shape"/>
</filter>
<clipPath id="clip0_2720_2334">
<rect x="14" y="15" width="36" height="48" rx="18" fill="white"/>
</clipPath>
</defs>
</svg>
