<svg width="24" height="24" viewBox="0 0 24 24" fill="none" xmlns="http://www.w3.org/2000/svg">
<path d="M20.3339 9.22347C20.3339 8.78322 19.9511 8.42302 19.4831 8.42302H13.5279C13.06 8.42302 12.6772 8.78322 12.6772 9.22347C12.6772 9.66371 13.06 10.0239 13.5279 10.0239H19.4831C19.9511 10.0239 20.3339 9.66371 20.3339 9.22347ZM12.6772 15.627C12.6772 16.0672 13.06 16.4274 13.5279 16.4274H19.4831C19.9511 16.4274 20.3339 16.0672 20.3339 15.627C20.3339 15.1868 19.9511 14.8266 19.4831 14.8266H13.5279C13.06 14.8266 12.6772 15.1868 12.6772 15.627ZM10.5248 6.52598C10.8566 6.83815 10.8566 7.34243 10.5248 7.6546L6.92615 11.0565C6.59436 11.3687 6.05839 11.3687 5.71809 11.0565L3.91451 9.35154C3.75544 9.20187 3.66608 8.99888 3.66608 8.78723C3.66608 8.68242 3.68802 8.57865 3.73064 8.48182C3.77327 8.385 3.83575 8.29702 3.91451 8.22291C3.99328 8.14881 4.08678 8.09002 4.18969 8.04992C4.2926 8.00981 4.4029 7.98917 4.51429 7.98917C4.73925 7.98917 4.95499 8.07325 5.11406 8.22291L6.32212 9.35954L9.33376 6.52598C9.65704 6.22181 10.2015 6.22181 10.5248 6.52598ZM10.5333 12.9375C10.8651 13.2497 10.8651 13.754 10.5333 14.0661L6.93466 17.468C6.60287 17.7802 6.0669 17.7802 5.7266 17.468L3.91451 15.7551C3.83575 15.681 3.77327 15.593 3.73064 15.4962C3.68802 15.3993 3.66608 15.2956 3.66608 15.1908C3.66608 15.086 3.68802 14.9822 3.73064 14.8854C3.77327 14.7885 3.83575 14.7006 3.91451 14.6265C3.99328 14.5523 4.08678 14.4936 4.18969 14.4535C4.2926 14.4133 4.4029 14.3927 4.51429 14.3927C4.62568 14.3927 4.73597 14.4133 4.83888 14.4535C4.94179 14.4936 5.0353 14.5523 5.11406 14.6265L6.32212 15.7631L9.33376 12.9295C9.65704 12.6253 10.2015 12.6253 10.5333 12.9375Z" fill="#35ABFF"/>
</svg>
