<svg width="32" height="32" viewBox="0 0 32 32" fill="none" xmlns="http://www.w3.org/2000/svg">
<path d="M10.7129 14.1946C10.7129 13.7841 10.9682 13.4167 11.339 13.2419C12.1488 12.8599 16.3348 12.6683 17.2909 11.0547C18.2804 9.11657 18.244 7.30046 18.2686 6.74702C18.272 6.66943 18.2701 6.59184 18.2804 6.51524C18.4135 5.55618 20.2643 6.67631 20.9739 7.86077C21.3594 8.50309 21.4085 9.34724 21.3682 10.0067C21.3245 10.7119 21.1178 11.393 20.915 12.0697L20.4828 13.512H25.8144C25.9661 13.512 26.1158 13.5472 26.2517 13.6147C26.3876 13.6823 26.5059 13.7804 26.5975 13.9014C26.6891 14.0224 26.7514 14.1629 26.7796 14.312C26.8077 14.4612 26.8009 14.6148 26.7597 14.7608L24.1226 24.099C24.0644 24.3049 23.9405 24.4862 23.7698 24.6153C23.5991 24.7444 23.3909 24.8141 23.1768 24.814H11.695C11.4346 24.814 11.1847 24.7105 11.0006 24.5263C10.8164 24.3421 10.7129 24.0923 10.7129 23.8319V14.1946Z" fill="#9BD5FF" stroke="#9BD5FF" stroke-width="2.66667" stroke-linecap="round" stroke-linejoin="round"/>
<path d="M6.72279 12.387C6.66967 12.5565 6.64961 12.7362 6.66389 12.9146L7.64754 25.1894C7.67332 25.5115 7.80951 25.8115 8.02922 26.03C8.24893 26.2486 8.53617 26.3697 8.83423 26.3697H10.1239C10.4398 26.3697 10.7427 26.2335 10.966 25.9912C11.1893 25.7489 11.3148 25.4203 11.3148 25.0776V12.8028C11.3148 12.4601 11.1893 12.1315 10.966 11.8892C10.7427 11.6469 10.4398 11.5107 10.1239 11.5107H7.84998C7.68494 11.5108 7.52171 11.5481 7.37064 11.6202C7.21958 11.6923 7.08398 11.7977 6.97245 11.9297C6.86093 12.0617 6.77591 12.2174 6.72279 12.387Z" fill="#35ABFF" stroke="#35ABFF" stroke-width="2.66667" stroke-linecap="round" stroke-linejoin="round"/>
</svg>
