<svg width="92" height="92" viewBox="0 0 92 92" fill="none" xmlns="http://www.w3.org/2000/svg">
<g clip-path="url(#clip0_2688_2523)">
<rect width="92" height="92" rx="46" fill="#DBDBDB"/>
<circle cx="46.0001" cy="101.326" r="37.1478" fill="#888888"/>
<path d="M47.4229 19.2856C56.1302 19.2857 63.8444 23.53 68.6152 30.061C69.9565 29.6966 71.3675 29.5015 72.8242 29.5015C81.6685 29.5015 88.8387 36.6709 88.8389 45.5151C88.8389 54.3595 81.6686 61.5298 72.8242 61.5298C71.3678 61.5298 69.9573 61.3336 68.6162 60.9692C63.8454 67.5008 56.1307 71.7456 47.4229 71.7456C38.7148 71.7456 30.9993 67.5011 26.2285 60.9692C24.8878 61.3334 23.4775 61.5297 22.0215 61.5298C13.1771 61.5298 6.00684 54.3595 6.00684 45.5151C6.00699 36.6709 13.1772 29.5015 22.0215 29.5015C23.4775 29.5015 24.8878 29.6969 26.2285 30.061C30.9993 23.5295 38.7151 19.2856 47.4229 19.2856Z" fill="white"/>
<path d="M47.4229 19.2856C56.1302 19.2857 63.8444 23.53 68.6152 30.061C69.9565 29.6966 71.3675 29.5015 72.8242 29.5015C81.6685 29.5015 88.8387 36.6709 88.8389 45.5151C88.8389 54.3595 81.6686 61.5298 72.8242 61.5298C71.3678 61.5298 69.9573 61.3336 68.6162 60.9692C63.8454 67.5008 56.1307 71.7456 47.4229 71.7456C38.7148 71.7456 30.9993 67.5011 26.2285 60.9692C24.8878 61.3334 23.4775 61.5297 22.0215 61.5298C13.1771 61.5298 6.00684 54.3595 6.00684 45.5151C6.00699 36.6709 13.1772 29.5015 22.0215 29.5015C23.4775 29.5015 24.8878 29.6969 26.2285 30.061C30.9993 23.5295 38.7151 19.2856 47.4229 19.2856Z" fill="url(#paint0_linear_2688_2523)" fill-opacity="0.2"/>
<rect x="33.1958" y="36.0308" width="4.42612" height="4.42612" rx="1.89691" fill="#888888"/>
<rect x="44.8936" y="36.0308" width="4.42612" height="4.42612" rx="1.89691" fill="#888888"/>
<path d="M29.7183 45.8315C29.7183 45.8315 32.3394 50.5738 41.0997 50.5738C49.86 50.5738 52.4811 45.8315 52.4811 45.8315" stroke="#888888" stroke-width="3.16151" stroke-linecap="round"/>
</g>
<defs>
<linearGradient id="paint0_linear_2688_2523" x1="47.4229" y1="52.5563" x2="47.4229" y2="71.7456" gradientUnits="userSpaceOnUse">
<stop stop-color="#888888" stop-opacity="0"/>
<stop offset="1" stop-color="#888888"/>
</linearGradient>
<clipPath id="clip0_2688_2523">
<rect width="92" height="92" rx="46" fill="white"/>
</clipPath>
</defs>
</svg>
