<svg width="76" height="76" viewBox="0 0 76 76" fill="none" xmlns="http://www.w3.org/2000/svg">
<g clip-path="url(#clip0_2688_2444)">
<rect width="76" height="76" rx="38" fill="#FFC5AD"/>
<circle cx="37.0341" cy="81.5766" r="29.9071" fill="#FF6F31"/>
<path d="M38.1798 15.5269C45.1895 15.527 51.4004 18.9432 55.2413 24.2007C56.3211 23.9073 57.4573 23.7505 58.63 23.7505C65.7502 23.7506 71.5223 29.5229 71.5226 36.6431C71.5226 43.7635 65.7504 49.5365 58.63 49.5366C57.4576 49.5366 56.3219 49.3787 55.2423 49.0854C51.4015 54.3441 45.1904 57.7621 38.1798 57.7622C31.1688 57.7622 24.9562 54.3446 21.1154 49.0854C20.0361 49.3785 18.9007 49.5366 17.7286 49.5366C10.6083 49.5365 4.83606 43.7635 4.83606 36.6431C4.83631 29.5229 10.6084 23.7506 17.7286 23.7505C18.9009 23.7505 20.0369 23.9075 21.1163 24.2007C24.9573 18.9428 31.1697 15.5269 38.1798 15.5269Z" fill="white"/>
<path d="M38.1798 15.5269C45.1895 15.527 51.4004 18.9432 55.2413 24.2007C56.3211 23.9073 57.4573 23.7505 58.63 23.7505C65.7502 23.7506 71.5223 29.5229 71.5226 36.6431C71.5226 43.7635 65.7504 49.5365 58.63 49.5366C57.4576 49.5366 56.3219 49.3787 55.2423 49.0854C51.4015 54.3441 45.1904 57.7621 38.1798 57.7622C31.1688 57.7622 24.9562 54.3446 21.1154 49.0854C20.0361 49.3785 18.9007 49.5366 17.7286 49.5366C10.6083 49.5365 4.83606 43.7635 4.83606 36.6431C4.83631 29.5229 10.6084 23.7506 17.7286 23.7505C18.9009 23.7505 20.0369 23.9075 21.1163 24.2007C24.9573 18.9428 31.1697 15.5269 38.1798 15.5269Z" fill="url(#paint0_linear_2688_2444)" fill-opacity="0.2"/>
<rect x="26.7255" y="29.0078" width="3.5634" height="3.5634" rx="1.52717" fill="#FF6F31"/>
<rect x="36.1431" y="29.0078" width="3.5634" height="3.5634" rx="1.52717" fill="#FF6F31"/>
<path d="M23.9257 36.8979C23.9257 36.8979 26.0359 40.7159 33.0887 40.7159C40.1415 40.7159 42.2517 36.8979 42.2517 36.8979" stroke="#FF6F31" stroke-width="2.54529" stroke-linecap="round"/>
</g>
<defs>
<linearGradient id="paint0_linear_2688_2444" x1="38.1793" y1="42.313" x2="38.1793" y2="57.7622" gradientUnits="userSpaceOnUse">
<stop stop-color="#FF6F31" stop-opacity="0"/>
<stop offset="1" stop-color="#FF6F31"/>
</linearGradient>
<clipPath id="clip0_2688_2444">
<rect width="76" height="76" rx="38" fill="white"/>
</clipPath>
</defs>
</svg>
